<svg xmlns="http://www.w3.org/2000/svg" width="531.984" height="131.199" viewBox="1.348 1.468 531.984 131.199"><path fill="#C6C6C5" d="M112.578 55.618c.2 2.8-.36 11.91-14.23 19.142l-26.98-5.892c-5.86-1.229-9.63-7-8.4-12.858 1.23-5.861 7-9.621 12.83-8.4l7.28 1.71a3.505 3.505 0 0 0 3.45 2.93c1.94 0 3.51-1.58 3.51-3.521 0-1.939-1.57-3.51-3.51-3.51-1.16 0-2.18.561-2.82 1.43l-7.31-1.719c-6.89-1.451-13.68 2.608-15.76 9.18-23.46 3.13-41.05 23.16-41.05 46.931 0 1.369.07 2.729.19 4.09a60.805 60.805 0 0 1-10.33-18.92c-2.01-6.01-3.04-12.291-3.09-18.67 12.24-19.241 32.94-31.568 55.57-33.17.58 1.16 1.76 1.96 3.14 1.96a3.517 3.517 0 0 0 0-7.031c-1.52 0-2.81.971-3.29 2.32-1.48.11-2.95.26-4.41.45.62-1.51 1.61-2.96 2.89-4.21 3.85-3.73 9.14-4.55 11.79-1.82 1.49 1.53 1.88 4.03 1.04 6.67-.23.721.17 1.5.9 1.73.04.01.08.01.13.02.07.04.15.07.23.09l10.51 2.761c7.89 2.609 10.43 13.461 10.45 13.569.12.521.52.921 1.04 1.04l16.23 3.698z"/><path fill="#C6C6C5" d="M89.468 77.927c-2.27-.399-25.14-5.649-33.93-7.682-.4-.09-.83 0-1.16.262-.33.271-.52.658-.52 1.078v18.36a3.5 3.5 0 0 0-2.14 3.23c0 1.948 1.57 3.52 3.51 3.52 1.95 0 3.52-1.569 3.52-3.52a3.5 3.5 0 0 0-2.14-3.23v-16.63c2.14.489 6.06 1.391 10.46 2.398v30.729l-5.06-1.771a1.365 1.365 0 1 0-1.65 1.961l5.33 9.527-3.99-1c-.54-.14-1.11.07-1.44.512a1.375 1.375 0 0 0-.07 1.529l6.31 10.449a60.54 60.54 0 0 1-43.48-18.841c-.45-2.56-.68-5.17-.68-7.778 0-22.068 16.1-40.722 37.72-44.081-.65 6.801 3.91 13.17 10.73 14.602l23.62 5.148c-1.52.629-3.32 1.199-4.94 1.228z"/><path fill="#FFF" d="M69.638 117.597l-5.11-9.129 3.46 1.209c.03.01.05.021.08.021.05.021.1.03.15.04.04.01.09.01.14.01.03 0 .06.013.09.013h.04c.05 0 .1-.013.14-.021.05 0 .09-.01.13-.02.04-.013.08-.021.12-.041.05-.011.09-.029.13-.039.04-.021.08-.041.11-.062.04-.029.08-.051.12-.08.04-.021.07-.051.1-.069.03-.039.07-.062.1-.101.03-.031.05-.061.08-.091.03-.04.06-.079.08-.12.03-.029.04-.07.06-.1.02-.051.05-.09.07-.143 0-.021.01-.027.01-.039.01-.029.01-.051.02-.078a.81.81 0 0 0 .04-.143c.01-.05.01-.101.01-.148 0-.029.01-.062.01-.08V76.347c8.74 2 18.28 4.16 19.34 4.318.07.012.15.021.22.021 4.35-.041 9.45-3.051 9.85-3.291 18.62-9.51 16.06-22.639 15.94-23.199-.11-.52-.52-.93-1.04-1.051l-16.36-3.729c-.81-2.88-4.02-12.06-12.13-14.75l-9.58-2.51c.61-3.12-.11-6.05-2.04-8.04-3.71-3.81-10.74-3.02-15.68 1.771-1.96 1.909-3.37 4.239-4.04 6.64-19.09 3.319-36.3 14.02-47.75 29.84 2.41-31.22 28.56-55.899 60.4-55.899 33.41 0 60.6 27.18 60.6 60.6 0 32.5-25.73 59.1-57.89 60.53l-.03-.062c0-.011 0-.021-.01-.029l-5.35-8.87 3.84.971c.11.021.21.029.32.029 0 0 .01.01.021.01.01 0 .03-.01.05-.01.08 0 .16-.011.24-.029.03-.01.06-.01.09-.021.08-.029.16-.061.24-.101.02-.01.03-.01.05-.021l.01-.012c.05-.028.09-.061.13-.09.03-.02.07-.039.1-.07.02-.028.05-.049.07-.078.04-.04.08-.079.11-.12.02-.021.03-.052.05-.08.03-.05.06-.09.09-.142.01-.028.021-.067.04-.1.02-.051.04-.1.05-.16 0 0 .01-.01.01-.02.01-.031.01-.062.01-.092l.03-.148c0-.051 0-.09-.01-.141v-.131a.734.734 0 0 0-.04-.148c-.01-.03-.01-.07-.02-.109-.02-.051-.05-.102-.07-.16-.011-.016-.021-.045-.041-.067z"/><path fill="#12303F" d="M61.928 34.368c-22.63 1.601-43.33 13.93-55.57 33.17.05 6.379 1.08 12.659 3.09 18.67a60.805 60.805 0 0 0 10.33 18.92 46.442 46.442 0 0 1-.19-4.09c0-23.771 17.59-43.801 41.05-46.932 2.08-6.569 8.87-10.629 15.76-9.18l7.31 1.721a3.507 3.507 0 0 1 6.33 2.08c0 1.938-1.57 3.52-3.51 3.52-1.74 0-3.17-1.27-3.45-2.93l-7.28-1.71c-5.83-1.22-11.6 2.54-12.83 8.399-1.23 5.859 2.54 11.631 8.4 12.859l26.98 5.892c13.87-7.229 14.43-16.341 14.23-19.142l-16.23-3.7a1.38 1.38 0 0 1-1.04-1.04c-.02-.109-2.56-10.96-10.45-13.568l-10.51-2.76a.96.96 0 0 1-.23-.091c-.05-.01-.09-.01-.13-.02a1.378 1.378 0 0 1-.9-1.73c.84-2.64.45-5.14-1.04-6.67-2.65-2.729-7.94-1.91-11.79 1.82-1.28 1.25-2.27 2.7-2.89 4.21 1.46-.19 2.93-.34 4.41-.45a3.49 3.49 0 0 1 3.29-2.319c1.94 0 3.51 1.569 3.51 3.51 0 1.939-1.57 3.52-3.51 3.52-1.38.001-2.56-.799-3.14-1.959zm-5.32 38.95v16.63c1.26.53 2.14 1.78 2.14 3.229a3.514 3.514 0 0 1-3.52 3.521 3.51 3.51 0 0 1-3.51-3.521c0-1.449.88-2.699 2.14-3.229v-18.36c0-.42.19-.81.52-1.077.33-.263.76-.353 1.16-.263 8.79 2.03 31.66 7.28 33.93 7.683 1.62-.031 3.42-.603 4.94-1.222l-23.62-5.149c-6.82-1.431-11.38-7.799-10.73-14.601-21.62 3.36-37.72 22.011-37.72 44.081 0 2.609.23 5.222.68 7.779a60.543 60.543 0 0 0 43.48 18.84l-6.31-10.449c-.29-.471-.26-1.08.07-1.528.33-.44.9-.65 1.44-.513l3.99 1-5.33-9.528a1.364 1.364 0 0 1 1.65-1.959l5.06 1.771V75.72c-4.4-1.012-8.32-1.912-10.46-2.402zm29.03-38.651c8.11 2.69 11.32 11.87 12.13 14.75l16.36 3.73c.521.119.93.529 1.04 1.05.12.562 2.68 13.69-15.94 23.2-.4.24-5.5 3.25-9.85 3.289-.07 0-.15-.01-.22-.021-1.06-.16-10.6-2.319-19.34-4.319v32.041c0 .02-.01.049-.01.079 0 .05 0 .101-.01.148a.746.746 0 0 1-.04.141c-.01.029-.01.052-.02.08 0 .011-.01.021-.01.039-.02.052-.05.092-.07.142-.02.03-.03.069-.06.101-.02.041-.05.08-.08.12-.03.029-.05.062-.08.091-.03.039-.07.061-.1.102-.03.02-.06.049-.1.068-.04.029-.08.051-.12.08-.03.021-.07.039-.11.061-.04.01-.08.029-.13.041-.04.02-.08.027-.12.039-.04.01-.08.021-.13.021a.542.542 0 0 1-.14.021h-.04c-.03 0-.06-.011-.09-.011-.05 0-.1 0-.14-.011-.05-.011-.1-.021-.15-.04-.03 0-.05-.01-.08-.02l-3.46-1.211 5.11 9.131c.02.02.03.049.04.068.021.061.05.109.07.16.01.039.01.08.02.108.02.051.03.101.04.149v.131c.01.05.01.091.01.14a9.75 9.75 0 0 1-.03.149c0 .029 0 .062-.01.091 0 .01-.01.021-.01.021-.01.062-.03.11-.05.16-.02.03-.03.069-.04.1-.03.053-.06.092-.09.143-.02.029-.03.061-.05.08-.03.039-.07.08-.11.119-.02.029-.05.051-.07.08-.03.029-.07.051-.1.068-.04.03-.08.062-.13.09l-.01.012c-.02.01-.03.01-.05.021-.08.04-.16.069-.24.101-.03.011-.06.011-.09.021-.08.02-.16.03-.24.03-.02 0-.04.01-.05.01-.01 0-.021-.01-.021-.01-.11 0-.21-.013-.32-.03l-3.84-.97 5.35 8.869c.01.01.01.021.01.028.01.021.021.041.03.062 32.16-1.431 57.89-28.029 57.89-60.529 0-33.42-27.19-60.6-60.6-60.6-31.84 0-57.99 24.68-60.4 55.899 11.45-15.818 28.66-26.52 47.75-29.84.67-2.4 2.08-4.729 4.04-6.64 4.94-4.79 11.97-5.58 15.68-1.771 1.93 1.99 2.65 4.92 2.04 8.04l9.581 2.508zM66.948 1.468c36.17 0 65.6 29.43 65.6 65.6s-29.43 65.6-65.6 65.6c-28.28 0-53.29-18.039-62.24-44.879a65.22 65.22 0 0 1-3.36-20.721c0-36.171 29.42-65.6 65.6-65.6z"/><path fill="#929191" d="M58.66 92.31s-.318-1.518-2.051-2.359l-.016-16.591 10.432 2.392v2.438l-8.365-2.066V92.31zm2.047-38.205l-3.738.688c1.405-8.027 9.67-11.777 19.34-9.9-6.805-1.433-13.508 2.603-15.602 9.212zm7.863-21.292c0-1.943-1.574-3.527-3.508-3.527a3.493 3.493 0 0 0-3.287 2.33l-4.406.453c.656-1.859 3.789-3.939 6.988-3.939 2.463-.001 4.213 2.094 4.213 4.683zM42.373 60.546c-14.457 8.696-25.669 22.12-25.669 38.995 0 1.33-.104.023.026 1.506l3.049 4.086c-.126-1.422-.241-3.163-.241-4.437 0-16.179 8.975-31.816 22.835-40.15zM65.689 116.169l-5.531-10.031.004 3.283c-.027.442.08.854.229 1.117l2.795 5 2.503.631zM66.498 127.662l-6.517-10.877.004 3.284c-.027.442.079.854.228 1.116l3.631 6.414 2.654.063zM98.349 74.759l-3.941-.858c13.807-6.595 16.545-11.372 18.197-16.94-.367 3.63-1.445 11.007-14.256 17.798zM94.392 76.726l-23.707-5.188.003-.017c-6.657-1.422-11.296-7.721-10.642-14.573l-3.485.694c-.132 7.06 6.956 13.416 13.938 14.877l.002-.004 22.017 4.836 1.874-.625z"/><path fill="#ECECEC" d="M49.877 59.872c-16.361 6.667-27.601 22.795-27.601 41.254 0 2.611.293 5.134.743 7.691.584.671 4.053 4.046 5.068 4.719.001.001-9.95-38.92 21.79-53.664z"/><path fill="#E6E6E6" d="M95.279 50.866c.119.521.52.92 1.04 1.04l16.229 3.699c.048.656.144.8-.055 2.043 0 0-14.375-3.176-16.074-3.586-.337-1.162-1.14-3.196-1.14-3.196zM67.608 57.107c.907-4.332 4.752-7.439 8.94-7.799l-.161-.049C71.331 48.2 66.329 51.46 65.264 56.54c-1.054 5.016 2.122 9.947 7.091 11.1-3.598-2.054-5.644-6.265-4.747-10.533z"/><path d="M194.551 66.468l-1.427-.562 1.148-1.01c2.122-1.873 3.108-4.146 3.108-7.15 0-5.456-3.603-10.963-11.65-10.963h-17.502c-1.715 0-2.867 1.176-2.867 2.928v35.383c0 1.727 1.178 2.928 2.867 2.928h19.559c8.059 0 13.27-4.744 13.27-12.084-.001-4.524-2.253-7.8-6.506-9.47zm-22.899-13.953h14.078c3.271 0 5.295 2.719 5.295 5.232 0 3.705-1.979 5.918-5.295 5.918h-14.078v-11.15zm20.903 27.735c-1.171 1.336-2.815 2.043-4.769 2.043h-16.134V69.396h16.135c4.172 0 6.354 3.242 6.354 6.449 0 1.672-.563 3.235-1.586 4.405zm44.01 1.482H216.63V70.521h16.631c1.018 0 1.855-.334 2.431-.971.514-.568.797-1.342.797-2.18 0-1.564-1-3.146-3.229-3.146h-16.63V53.015h18.871c1.041 0 1.906-.338 2.5-.98.525-.562.82-1.352.82-2.167 0-1.533-1.025-3.081-3.32-3.081h-22.359c-1.697 0-2.928 1.23-2.928 2.93v35.381c0 1.674 1.258 2.928 2.928 2.928h23.423c1.129 0 2.053-.329 2.664-.952.526-.533.816-1.271.816-2.078.002-1.625-1.196-3.264-3.48-3.264zm42.006-1.309l2.996 6c.657 1.428 1.727 1.721 2.504 1.721 1.209 0 2.438-.691 3.059-1.729.391-.64.699-1.678 0-3.006L269.557 48.45c-.578-1.271-1.668-2.01-2.938-2.01-1.289 0-2.487.773-3.121 2.015L245.62 83.403c-1.022 2.155.074 3.812 1.492 4.665.408.07.807.107 1.187.107 1.567 0 2.642-.582 3.185-1.732l2.938-6.021 24.149.001zm-12.009-24.842l8.459 18.49h-17.666l9.207-18.49zm60.739 27.36l-9.043-11.01 1.188-.477c6.488-2.604 8.385-9.012 7.379-14.207-.932-4.825-4.865-10.464-12.893-10.464h-16.566c-1.574 0-2.801 1.259-2.801 2.865v35.384c0 2.135 1.562 3.09 3.116 3.09 1.587 0 3.3-1.006 3.3-3.216v-12.21h11.195l9.688 13.854c1.029 1.309 2.18 1.589 2.953 1.589 1.189 0 2.309-.666 2.859-1.703.565-1.06.436-2.3-.375-3.495zm-26.323-15.534V52.454h12.953c2.239 0 4.116.8 5.429 2.313 1.141 1.316 1.77 3.099 1.77 5.015 0 3.789-2.473 7.624-7.195 7.624l-12.957.001zm49.472 21.926c7.807 0 16.238-3.312 16.496-12.609.223-8.479-7.225-10.533-14.424-12.525-5.879-1.625-11.43-3.163-10.543-8.529.695-3.447 3.723-5.404 8.314-5.404 3.287 0 7.014 1.014 9.49 2.59.561.408 1.104.601 1.645.601 1.072 0 2.082-.751 2.472-1.833.411-1.175-.03-2.398-1.222-3.357-2.854-2.192-7.043-3.459-11.479-3.459-6.99 0-14.428 3.248-15.289 10.506-1.045 9.597 6.611 11.74 14.018 13.812 5.345 1.498 10.396 2.912 10.779 7.356l.014.09-.014.093c-.457 4.342-3.748 6.832-9.018 6.832h-.003c-3.896 0-8.677-1.404-11.622-3.418-1.654-1.353-2.789-1.209-4.287.256-.863 1.371-.83 3.514.732 4.789 3.154 2.598 8.493 4.209 13.941 4.209zm54.869-42.732h-29.461c-2.164 0-3.134 1.531-3.134 3.051 0 1.521.97 3.053 3.134 3.053h11.832v32.393c0 2.194 1.577 3.18 3.145 3.18 1.549 0 3.213-.995 3.213-3.18V52.704h11.271c1.018 0 1.857-.326 2.434-.946.513-.551.793-1.298.793-2.104-.003-1.522-1.003-3.053-3.227-3.053zm37.318 35.131h-19.939V70.521h16.637c1.016 0 1.855-.334 2.428-.971.518-.568.803-1.342.803-2.18 0-1.564-1-3.146-3.23-3.146h-16.637V53.015h18.877c1.043 0 1.906-.338 2.502-.98.521-.559.816-1.352.816-2.167 0-1.533-1.027-3.081-3.318-3.081h-22.361c-1.694 0-2.928 1.23-2.928 2.93v35.381c0 1.674 1.26 2.928 2.928 2.928h23.426c1.131 0 2.055-.329 2.662-.952.527-.533.816-1.271.816-2.078-.001-1.625-1.199-3.264-3.482-3.264zm46.09-2.502c-.525-.7-1.562-1.18-2.562-1.18-.684 0-1.316.215-1.842.619-3.053 2.723-6.629 4.186-10.291 4.186-10.457 0-15.133-7.916-15.133-15.762 0-7.627 4.676-15.324 15.133-15.324 4.158 0 6.881 1.078 9.396 3.717 1.109 1.111 3.217 1.218 4.436.134.561-.584.883-1.423.859-2.306a3.37 3.37 0 0 0-1.062-2.354c-4.289-3.705-8.375-5.296-13.629-5.296-14.457 0-20.93 10.766-20.93 21.432 0 10.33 5.5 21.364 20.93 21.364 4.537 0 9.756-.545 14.127-4.606 2.111-2.112.968-4.073.568-4.624zm44.606-29.518c0-1.695-1.229-2.928-2.924-2.928-1.822 0-3.305 1.312-3.305 2.928v14.514h-22.176V49.712c0-1.724-1.178-2.928-2.865-2.928-2.184 0-3.486 1.094-3.486 2.928v35.383c0 1.809 1.336 2.928 3.486 2.928 1.637 0 2.865-1.254 2.865-2.928V70.521h22.176v14.574c0 1.588 1.512 2.928 3.305 2.928 1.67 0 2.924-1.254 2.924-2.928V49.712z" fill="#12303F"/></svg>