<?xml version="1.0" encoding="UTF-8" standalone="no"?>
<svg xmlns:dc="http://purl.org/dc/elements/1.1/" xmlns:cc="http://creativecommons.org/ns#" xmlns:rdf="http://www.w3.org/1999/02/22-rdf-syntax-ns#" xmlns:svg="http://www.w3.org/2000/svg" xmlns="http://www.w3.org/2000/svg" xmlns:sodipodi="http://sodipodi.sourceforge.net/DTD/sodipodi-0.dtd" xmlns:inkscape="http://www.inkscape.org/namespaces/inkscape" version="1.1" id="Layer_1" x="0px" y="0px" width="81.538139" height="30.024" viewBox="0 0 81.538139 30.024003" enable-background="new 0 0 300 200" xml:space="preserve" inkscape:version="0.48.5 r10040" sodipodi:docname="logoFDN-dark.svg"><sodipodi:namedview pagecolor="#ffffff" bordercolor="#666666" borderopacity="1" objecttolerance="10" gridtolerance="10" guidetolerance="10" inkscape:pageopacity="0" inkscape:pageshadow="2" inkscape:window-width="1280" inkscape:window-height="958" id="namedview12" showgrid="false" fit-margin-top="0" fit-margin-left="0" fit-margin-right="0" fit-margin-bottom="0" inkscape:zoom="1.6219646" inkscape:cx="138.41239" inkscape:cy="50.512216" inkscape:window-x="0" inkscape:window-y="27" inkscape:window-maximized="1" inkscape:current-layer="Layer_1"/><title id="title3070">logo FDN</title><metadata id="metadata3030"><rdf:RDF><cc:Work rdf:about=""><dc:format>image/svg+xml</dc:format><dc:type rdf:resource="http://purl.org/dc/dcmitype/StillImage"/><dc:title>logo FDN</dc:title><cc:license rdf:resource="http://creativecommons.org/licenses/by/3.0/"/></cc:Work><cc:License rdf:about="http://creativecommons.org/licenses/by/3.0/"><cc:permits rdf:resource="http://creativecommons.org/ns#Reproduction"/><cc:permits rdf:resource="http://creativecommons.org/ns#Distribution"/><cc:requires rdf:resource="http://creativecommons.org/ns#Notice"/><cc:requires rdf:resource="http://creativecommons.org/ns#Attribution"/><cc:permits rdf:resource="http://creativecommons.org/ns#DerivativeWorks"/></cc:License></rdf:RDF></metadata><defs id="defs3028"/><g transform="matrix(0.29719544,0,0,0.29719544,-8.9158748,-8.9158641)" id="g4235"><g id="g4231"><polygon id="polygon3018" points="84.367,49.488 16.107,49.488 16.107,77.255 84.367,77.255 " style="fill:#545865;fill-opacity:1" transform="translate(13.892986,-19.487997)"/><polygon id="polygon3020" points="16.107,88.244 16.107,150.512 46,150.512 46,114.875 84.367,114.925 84.367,88.244 " style="fill:#545865;fill-opacity:1" transform="translate(13.892986,-19.487997)"/></g><path id="path3022" d="m 195.76199,46.253003 c -8.162,-10.541 -19.697,-16.226 -33.36,-16.253 l -40.637,0 0,27.767 35.052,0 0.228,0 c 14.461,0 21.053,11.392 21.059,21.977 0.006,12.12 -8.354,25.156997 -26.69,25.624997 l -0.049,-36.612997 -29.45,0 0.051,62.267997 40.38,0 c 0.159,0.001 0.309,0 0.467,0 0.003,0 0.006,0 0.009,0 13.748,-0.003 25.233,-5.912 33.216,-15.971 7.027,-8.854 10.904,-20.856997 10.916,-33.804997 0.006,-6.409 -0.936,-12.675 -2.797,-18.624 -1.93,-6.159 -4.754,-11.668 -8.395,-16.371 z" style="fill:#545865;fill-opacity:1" inkscape:connector-curvature="0"/><path id="path3024" d="m 294.89199,37.938003 c -5.112,-5.201 -11.39,-7.938 -18.651,-7.938 l -51.423,0 0,101.023997 29.647,0 0,-73.848997 14.863,0 0.125,-10e-4 c 3.444,0 5.349,1.883 5.407,5.745 l 0,68.104997 29.497,0 0,-71.852997 c 0.076,-4.412 -2.429,-14.078 -9.465,-21.233 z" style="fill:#545865;fill-opacity:1" inkscape:connector-curvature="0"/></g></svg>