<?xml version="1.0" encoding="UTF-8" standalone="no"?>
<svg
   xmlns:dc="http://purl.org/dc/elements/1.1/"
   xmlns:cc="http://creativecommons.org/ns#"
   xmlns:rdf="http://www.w3.org/1999/02/22-rdf-syntax-ns#"
   xmlns:svg="http://www.w3.org/2000/svg"
   xmlns="http://www.w3.org/2000/svg"
   xmlns:sodipodi="http://sodipodi.sourceforge.net/DTD/sodipodi-0.dtd"
   xmlns:inkscape="http://www.inkscape.org/namespaces/inkscape"
   viewBox="0 0 275.65207 279.59825"
   id="svg3656"
   width="275.65482"
   height="279.60104"
   version="1.1"
   sodipodi:docname="codeurs-en-liberte.svg"
   inkscape:version="0.92.4 5da689c313, 2019-01-14">
  <metadata
     id="metadata32">
    <rdf:RDF>
      <cc:Work
         rdf:about="">
        <dc:format>image/svg+xml</dc:format>
        <dc:type
           rdf:resource="http://purl.org/dc/dcmitype/StillImage" />
        <dc:title />
      </cc:Work>
    </rdf:RDF>
  </metadata>
  <defs
     id="defs30" />
  <sodipodi:namedview
     pagecolor="#ffffff"
     bordercolor="#666666"
     borderopacity="1"
     objecttolerance="10"
     gridtolerance="10"
     guidetolerance="10"
     inkscape:pageopacity="0"
     inkscape:pageshadow="2"
     inkscape:window-width="1680"
     inkscape:window-height="993"
     id="namedview28"
     showgrid="false"
     inkscape:zoom="1.4142136"
     inkscape:cx="11.156008"
     inkscape:cy="219.74876"
     inkscape:window-x="0"
     inkscape:window-y="0"
     inkscape:window-maximized="1"
     inkscape:current-layer="svg3656"
     inkscape:pagecheckerboard="true"
     fit-margin-top="10"
     fit-margin-left="10"
     fit-margin-right="10"
     fit-margin-bottom="10"
     scale-x="0.99999" />
  <style
     id="style3658">.st0{display:none}.st1{display:inline}.st2,.st3,.st4{fill:none;stroke:#000;stroke-width:2.8346;stroke-linecap:round;stroke-linejoin:round;stroke-miterlimit:10}.st3,.st4{stroke-width:1.4173}.st4{stroke-width:1.3941}.st5,.st6{display:inline}.st5{fill:none}.st6{stroke:#000;stroke-width:.2835;stroke-miterlimit:10}.st7{font-family:'Raleway-Thin'}.st8{font-size:11.642px}.st9{stroke:#000;stroke-width:.2835;stroke-miterlimit:10}</style>
  <g
     id="g4567"
     transform="matrix(2.8064895,0,0,2.8064895,51.670806,9.9999002)">
    <path
       inkscape:connector-curvature="0"
       id="path4586"
       d="M 30.498638,0.69704996 25.749446,3.4690585 18.498638,9.1970498 3.8986376,15.59705 0.99863768,34.597049 l 28.79999932,16.3 3.400001,-1.3 26.699998,-14.6 -3.2,-19 z"
       style="fill:#ffffff;fill-opacity:1;fill-rule:evenodd;stroke:none;stroke-width:1.00000191px;stroke-linecap:butt;stroke-linejoin:miter;stroke-opacity:1" />
    <g
       transform="translate(-14.301362,-21.20295)"
       id="layer3"
       style="fill:#ffffff;fill-opacity:0">
      <g
         id="g3700"
         style="fill:#ffffff;fill-opacity:0">
        <g
           id="g3702"
           style="fill:#ffffff;fill-opacity:0">
          <path
             d="m 48.2,71.3 14.1,-8.1 7.1,-4.1 3.6,-2.1 0.8,-0.5 0.4,-0.3 0.3,-0.3 0.3,-0.3 0.1,-0.4 0.1,-0.3 v -0.4"
             stroke-miterlimit="10"
             id="polyline3704"
             class="st4"
             style="fill:#ffffff;fill-opacity:0;stroke:#000000;stroke-width:1.39409995;stroke-linecap:round;stroke-linejoin:round;stroke-miterlimit:10"
             inkscape:connector-curvature="0" />
          <path
             d="m 15,54.5 v 0.4 l 0.1,0.5 0.2,0.4 0.4,0.3 0.4,0.4 0.5,0.3 1,0.6 4.2,2.4 8.4,4.8 8.3,4.8 2.1,1.2 1,0.6 0.5,0.3 0.6,0.3 0.7,0.1 0.7,0.2 h 1.5 l 0.7,-0.1 0.7,-0.2 0.6,-0.2 0.6,-0.3"
             stroke-miterlimit="10"
             id="polyline3706"
             class="st4"
             style="fill:#ffffff;fill-opacity:0;stroke:#000000;stroke-width:1.39409995;stroke-linecap:round;stroke-linejoin:round;stroke-miterlimit:10"
             inkscape:connector-curvature="0" />
          <path
             d="M 72.1,37.3 72,37.2 71.9,36.8 71.6,36.4 71.3,36.1 70.8,35.8 66.7,33.4 58.6,28.8 50.5,24.1 48.5,22.9 48,22.6 47.5,22.3 46.9,22.1 46.2,22 45.5,21.9 h -0.7 l -0.7,0.1 -0.7,0.1 -0.6,0.2 -0.6,0.2 -1,0.6"
             stroke-miterlimit="10"
             id="polyline3708"
             class="st4"
             style="fill:#ffffff;fill-opacity:0;stroke:#000000;stroke-width:1.39409995;stroke-linecap:round;stroke-linejoin:round;stroke-miterlimit:10"
             inkscape:connector-curvature="0" />
          <path
             d="M 72.1,37.4 V 37.3"
             stroke-miterlimit="10"
             id="line3710"
             class="st4"
             style="fill:#ffffff;fill-opacity:0;stroke:#000000;stroke-width:1.39409995;stroke-linecap:round;stroke-linejoin:round;stroke-miterlimit:10"
             inkscape:connector-curvature="0" />
          <path
             d="m 19.8,35.5 -0.5,0.3 -0.5,0.3 -0.3,0.4 -0.3,0.3 -0.1,0.4 v 0.2"
             stroke-miterlimit="10"
             id="polyline3712"
             class="st4"
             style="fill:#ffffff;fill-opacity:0;stroke:#000000;stroke-width:1.39409995;stroke-linecap:round;stroke-linejoin:round;stroke-miterlimit:10"
             inkscape:connector-curvature="0" />
          <path
             d="M 15,54.5 18.1,37.4"
             stroke-miterlimit="10"
             id="line3714"
             class="st4"
             style="fill:#ffffff;fill-opacity:0;stroke:#000000;stroke-width:1.39409995;stroke-linecap:round;stroke-linejoin:round;stroke-miterlimit:10"
             inkscape:connector-curvature="0" />
          <path
             d="M 72.1,37.3 75,54.5"
             stroke-miterlimit="10"
             id="line3716"
             class="st4"
             style="fill:#ffffff;fill-opacity:0;stroke:#000000;stroke-width:1.39409995;stroke-linecap:round;stroke-linejoin:round;stroke-miterlimit:10"
             inkscape:connector-curvature="0" />
          <path
             d="M 72.1,37.3"
             stroke-miterlimit="10"
             id="line3718"
             class="st4"
             style="fill:#ffffff;fill-opacity:0;stroke:#000000;stroke-width:1.39409995;stroke-linecap:round;stroke-linejoin:round;stroke-miterlimit:10"
             inkscape:connector-curvature="0" />
          <path
             d="m 19.8,35.5 2.6,-0.9 2.6,-1 2.5,-1.2 2.5,-1.2 2.4,-1.4 2.3,-1.5 2.3,-1.6 2.1,-1.7 2.1,-1.9"
             stroke-miterlimit="10"
             id="polyline3720"
             class="st4"
             style="fill:#ffffff;fill-opacity:0;stroke:#000000;stroke-width:1.39409995;stroke-linecap:round;stroke-linejoin:round;stroke-miterlimit:10"
             inkscape:connector-curvature="0" />
        </g>
      </g>
    </g>
    <g
       transform="translate(-3.6230291e-4,4.9975395e-5)"
       style="fill:#ffffff;fill-opacity:0"
       id="g4580">
      <path
         class="st3"
         id="polyline3684"
         stroke-miterlimit="10"
         d="m 33.799,49.297 13.6,-7.9 6.9,-3.9 3.4,-2 0.8,-0.5 0.4,-0.3 0.3,-0.3 0.3,-0.3 0.1,-0.3 0.1,-0.4 -0.1,-0.3"
         inkscape:connector-curvature="0"
         style="fill:#ffffff;fill-opacity:0;stroke:#000000;stroke-width:1.41729999;stroke-linecap:round;stroke-linejoin:round;stroke-miterlimit:10" />
      <path
         class="st3"
         id="polyline3686"
         stroke-miterlimit="10"
         d="m 1.699,32.997 v 0.5 l 0.1,0.4 0.2,0.4 0.4,0.3 0.4,0.4 0.5,0.3 1,0.5 4,2.4 8.1,4.6 8,4.7 2,1.1 1,0.6 0.5,0.3 0.6,0.2 0.7,0.2 0.7,0.1 0.7,0.1 0.7,-0.1 0.7,-0.1 0.6,-0.1 0.6,-0.2 0.6,-0.3"
         inkscape:connector-curvature="0"
         style="fill:#ffffff;fill-opacity:0;stroke:#000000;stroke-width:1.41729999;stroke-linecap:round;stroke-linejoin:round;stroke-miterlimit:10" />
      <path
         class="st3"
         id="polyline3688"
         stroke-miterlimit="10"
         d="m 56.199,17.897 0.3,-0.4 0.2,-0.4 0.1,-0.4 v -0.3 l -0.1,-0.4 -0.3,-0.4 -0.3,-0.3 -0.5,-0.3 -3.9,-2.3 -7.8,-4.5 -7.8,-4.5 -2,-1.2 -0.5,-0.2 -0.5,-0.3 -0.6,-0.2 -0.6,-0.2 h -0.7 l -0.7,-0.1 -0.7,0.1 -0.6,0.1 -0.6,0.2 -0.6,0.3 -0.9,0.6"
         inkscape:connector-curvature="0"
         style="fill:#ffffff;fill-opacity:0;stroke:#000000;stroke-width:1.41729999;stroke-linecap:round;stroke-linejoin:round;stroke-miterlimit:10" />
      <path
         class="st3"
         id="polyline3690"
         stroke-miterlimit="10"
         d="m 6.399,14.697 -0.5,0.3 -0.5,0.3 -0.3,0.3 -0.3,0.4 -0.1,0.4 v 0.4 l 0.1,0.3 0.2,0.4 0.3,0.4 0.5,0.3 0.9,0.5 1.9,1.1 7.7,4.4 7.6,4.4 3.8,2.3 0.5,0.2 0.5,0.3 0.7,0.1 0.6,0.1 0.7,0.1 h 0.6 l 0.7,-0.1 0.6,-0.2"
         inkscape:connector-curvature="0"
         style="fill:#ffffff;fill-opacity:0;stroke:#000000;stroke-width:1.41729999;stroke-linecap:round;stroke-linejoin:round;stroke-miterlimit:10" />
      <path
         class="st3"
         id="line3692"
         stroke-miterlimit="10"
         d="m 1.699,32.997 3,-16.6"
         inkscape:connector-curvature="0"
         style="fill:#ffffff;fill-opacity:0;stroke:#000000;stroke-width:1.41729999;stroke-linecap:round;stroke-linejoin:round;stroke-miterlimit:10" />
      <path
         class="st3"
         id="line3694"
         stroke-miterlimit="10"
         d="m 56.799,16.397 2.8,16.7"
         inkscape:connector-curvature="0"
         style="fill:#ffffff;fill-opacity:0;stroke:#000000;stroke-width:1.41729999;stroke-linecap:round;stroke-linejoin:round;stroke-miterlimit:10" />
      <path
         class="st3"
         id="polyline3696"
         stroke-miterlimit="10"
         d="m 32.599,31.397 2.6,-0.8 2.6,-0.9 2.6,-1.1 2.4,-1.2 2.4,-1.3 2.4,-1.4 2.3,-1.6 2.2,-1.6 2.1,-1.8 2,-1.8"
         inkscape:connector-curvature="0"
         style="fill:#ffffff;fill-opacity:0;stroke:#000000;stroke-width:1.41729999;stroke-linecap:round;stroke-linejoin:round;stroke-miterlimit:10" />
      <path
         class="st3"
         id="polyline3698"
         stroke-miterlimit="10"
         d="m 6.399,14.697 2.5,-0.9 2.5,-0.9 2.4,-1.2 2.4,-1.2 2.3,-1.3 2.3,-1.5 2.1,-1.5 2.1,-1.7 2.1,-1.7"
         inkscape:connector-curvature="0"
         style="fill:#ffffff;fill-opacity:0;stroke:#000000;stroke-width:1.41729999;stroke-linecap:round;stroke-linejoin:round;stroke-miterlimit:10" />
    </g>
    <path
       d="m 43.846638,16.67705 c 1.563,0.677 2.555,2.323 2.312,4.077 -0.292,2.11 -2.261,3.605 -4.383,3.286 l -17.459,-2.627 -3.29,-0.43 -0.016,-0.002 c -0.007,0 -0.013,-0.002 -0.02,-0.003 -2.11,-0.314 -3.613,-2.238 -3.482,-4.376 a 3.55,3.55 0 0 1 0.026,-0.308 v -0.003 c 0.307,-2.263 2.364,-3.843 4.583,-3.524 l 4.029,0.58 c 0,0 -0.332,2.464 -1.944,2.232 -1.611,-0.232 -2.309,-1.17 -3.112,-1.285 -1.612,-0.232 -1.833,1.41 -1.944,2.23 v 0.005 c -0.084,0.63 0.177,1.115 0.717,1.33 0.714,0.283 1.808,0.015 2.64,-1.224 a 0.827,0.827 0 0 1 0.139,-0.153 l 0.04,-0.034 a 0.797,0.797 0 0 1 0.139,-0.086 c 0.012,-0.006 0.023,-0.014 0.036,-0.019 a 0.79,0.79 0 0 1 0.19,-0.054 c 0.014,-0.003 0.028,-0.003 0.042,-0.004 a 0.794,0.794 0 0 1 0.167,0 c 0.01,0 0.02,-0.002 0.03,0 0.006,0 0.012,0.004 0.018,0.005 a 0.789,0.789 0 0 1 0.195,0.057 l 0.025,0.014 a 0.8,0.8 0 0 1 0.11,0.062 c 0.014,0.01 0.024,0.021 0.036,0.03 a 0.828,0.828 0 0 1 0.154,0.16 l 0.025,0.033 a 0.824,0.824 0 0 1 0.09,0.183 c 0.002,0.005 0.006,0.008 0.007,0.014 l 1.059,3.107 13.905,2.129 a 3.825,3.825 0 0 1 -0.46,-2.405 c 0.169,-1.22 0.9,-2.225 1.896,-2.8 0,0 -16.755,-8.623 -16.708,-8.961 0.01,-0.066 0.071,-0.176 0.098,-0.24 6.966,2.735 14.308,6.279 20.11,9.004 z m -3.855,3.213 a 2.334,2.334 0 0 0 1.995,2.62 2.324,2.324 0 0 0 2.63,-1.972 2.334,2.334 0 0 0 -1.994,-2.62 2.324,2.324 0 0 0 -2.63,1.972 z"
       id="path3630"
       inkscape:connector-curvature="0"
       style="fill:#e60000;stroke-width:0.60000002" />
  </g>
  <text
     xml:space="preserve"
     style="font-style:normal;font-weight:normal;font-size:112.25979614px;line-height:39.99959946px;font-family:Sans;text-align:center;letter-spacing:0px;word-spacing:0px;text-anchor:middle;fill:#000000;fill-opacity:1;stroke:none;stroke-width:2.80649471px;stroke-linecap:butt;stroke-linejoin:miter;stroke-opacity:1;"
     x="137.9158"
     y="218.1292"
     id="text4540"><tspan
       sodipodi:role="line"
       id="tspan4538"
       x="137.9158"
       y="218.1292"
       style="font-style:normal;font-variant:normal;font-weight:normal;font-stretch:normal;font-size:59.87189102px;line-height:39.99959946px;font-family:Ubuntu;-inkscape-font-specification:Ubuntu;text-align:center;text-anchor:middle;stroke-width:2.80649471px;fill:#000000;fill-opacity:1;">Codeurs</tspan><tspan
       sodipodi:role="line"
       x="137.9158"
       y="268.87988"
       style="font-style:normal;font-variant:normal;font-weight:normal;font-stretch:normal;font-size:59.87189102px;line-height:39.99959946px;font-family:Ubuntu;-inkscape-font-specification:Ubuntu;text-align:center;text-anchor:middle;stroke-width:2.80649471px;fill:#000000;fill-opacity:1;"
       id="tspan4542">en liberté</tspan></text>
</svg>
