<svg xmlns="http://www.w3.org/2000/svg" style="display: none;"><symbol id="heart" viewBox="0 0 512 512"><title>heart</title><path style="fill:#FF3F2E;" d="M214.582,251.558c12.28,10.365,24.979,21.083,38.473,32.778c2.819,2.443,6.321,3.665,9.824,3.665 c3.502,0,7.005-1.222,9.824-3.665c13.492-11.693,26.189-22.41,38.469-32.773c21.342-18.014,39.773-33.57,55.767-48.66 c31.053-29.298,59.787-62.553,59.787-107.114c0-25.329-8.695-49.05-24.483-66.794C385.606,10.297,362.543,0,337.303,0 c-28.172,0-52.593,13.321-70.622,38.522c-1.352,1.889-2.617,3.779-3.802,5.649c-1.184-1.871-2.449-3.76-3.801-5.649 C241.049,13.321,216.628,0,188.456,0c-25.24,0-48.303,10.297-64.939,28.994c-15.788,17.744-24.483,41.465-24.483,66.794 c0,27.525,10.681,52.924,33.611,79.934C152.653,199.287,181.352,223.51,214.582,251.558z"/><path style="fill:#F2D1A5;" d="M503.034,373.999l-72.001,96c-19.799,26.4-51,42.001-84,42.001h-133.8 c-46.8,0-92.699-9.6-135.899-27.9l-3.3-92.401c20.099-96.301,119.7-120.3,177.299-69.6c6.301,5.099,13.5,8.401,20.7,9.3 c2.1,0.601,3.9,0.601,5.7,0.601h54.3c5.4,0,10.499,1.5,15,4.2c8.699,4.799,14.7,14.399,15,25.499v0.3c0,11.1-6,20.7-15,25.8 c-4.501,2.701-9.6,4.2-15,4.2h-91.5c-8.401,0-15,6.599-15,15c0,8.399,6.599,15,15,15h116.4c15,0,25.8-6.301,35.099-16.8l68.101-78.6 c10.8-11.7,29.399-12.601,40.499-3.001c2.701,2.1,5.099,4.501,6.899,7.5C514.434,341.3,513.533,360.2,503.034,373.999z"/><path style="fill:#1EA1E3;" d="M122.034,347c0-24.814-20.186-45-45-45h-62c-8.291,0-15,6.709-15,15v180c0,8.291,6.709,15,15,15h62 c24.814,0,45-20.186,45-45V347z"/><g> <path style="fill:#F2BB88;" d="M262.879,392h69.154c5.4,0,10.499-1.5,15-4.2c9-5.099,15-14.7,15-25.8v-0.3 c-0.3-11.1-6.301-20.7-15-25.499c-4.501-2.701-9.6-4.2-15-4.2h-54.3c-1.8,0-3.6,0-5.7-0.601c-3.076-0.384-6.148-1.231-9.154-2.446 V392z"/> <path style="fill:#F2BB88;" d="M431.033,469.999l72.001-96c10.499-13.799,11.4-32.699,4.499-42.9c-1.8-2.999-4.198-5.4-6.899-7.5 c-11.1-9.6-29.7-8.699-40.499,3.001l-68.101,78.6c-9.3,10.499-20.1,16.8-35.1,16.8h-94.055v90h84.154 C380.033,512,411.234,496.399,431.033,469.999z"/> </g><path style="fill:#CF0404;" d="M272.703,284.335c13.492-11.693,26.189-22.41,38.469-32.773c21.342-18.014,39.773-33.57,55.767-48.66 c31.053-29.298,59.787-62.553,59.787-107.114c0-25.329-8.695-49.05-24.483-66.794C385.606,10.297,362.543,0,337.303,0 c-28.172,0-52.593,13.321-70.622,38.522c-1.352,1.889-2.617,3.779-3.802,5.649V288C266.381,288,269.884,286.778,272.703,284.335z"/></symbol><symbol id="place" viewBox="0 0 490 490"><title>place</title><path style="fill:#55D485;" d="M490,245c0,84.68-42.96,159.33-108.28,203.34c-15.27,10.28-31.76,18.89-49.2,25.57 C305.34,484.3,275.84,490,245,490c-35.84,0-69.89-7.7-100.57-21.52c-16.6-7.49-32.23-16.77-46.62-27.6C38.41,396.17,0,325.07,0,245 c0-25.17,3.79-49.45,10.84-72.3C41.69,72.68,134.86,0,245,0s203.31,72.68,234.16,172.7C486.21,195.55,490,219.83,490,245z"/><ellipse style="fill:#10995B;" cx="367.161" cy="269.136" rx="63.268" ry="26.063"/><path style="fill:#10995B;" d="M457.58,304.57c-0.929,4.936-3.128,9.525-6.64,13.14c-3.421,3.521-7.694,6.109-12.133,8.141 c-9.974,4.566-20.923,6.852-31.696,8.611c-11.24,1.835-22.595,2.954-33.946,3.831c-11.43,0.883-22.872,1.603-34.322,2.178 c-22.853,1.148-45.72,1.941-68.568,3.221c-22.573,1.265-45.196,2.823-67.538,6.413c-10.727,1.724-21.521,3.855-31.71,7.717 c-4.58,1.736-9.749,3.842-13.182,7.469c-1.259,1.33-1.673,2.356-1.224,4.142c0.542,2.156,1.678,4.169,2.864,6.029 c2.875,4.507,6.557,8.494,10.356,12.232c1.078,1.061,2.176,2.098,3.289,3.122c0.617,0.568,0.949,0.711,1.732,1.045 c4.621,1.973,9.778,2.723,14.729,3.356c5.453,0.697,10.94,1.105,16.428,1.415c9.709,0.547,19.441,0.727,29.16,1.007 c21.86,0.631,43.775,1.413,65.405,4.859c20.765,3.308,41.832,9.414,59.024,21.931c8.46,6.159,15.839,13.807,21.379,22.704 c0.155,0.25,0.308,0.501,0.46,0.752c0.284,0.471,0.278,0.266-0.03,0.658c-0.315,0.401-1.074,0.717-1.512,1.007 c-1.163,0.768-2.333,1.526-3.508,2.274c-2.201,1.4-4.424,2.765-6.668,4.095c-4.5,2.666-9.085,5.187-13.746,7.56 c-4.79,2.438-9.659,4.718-14.599,6.836c-2.367,1.014-4.749,1.991-7.147,2.931c-0.456,0.179-1.487,0.761-1.785,0.504 c-0.357-0.308-0.602-1.325-0.833-1.76c-0.588-1.11-1.26-2.181-2.009-3.19c-5.946-8.013-15.834-12.829-24.903-16.352 c-10.201-3.963-20.859-6.607-31.579-8.723c-11.082-2.187-22.256-3.816-33.458-5.241c-11.014-1.401-22.044-2.677-33.049-4.151 c-10.784-1.444-21.628-3.048-32.108-6.046c-8.706-2.49-17.35-6.12-23.905-12.542c-1.616-1.583-3.096-3.339-4.57-5.052 c-3.508-4.074-6.829-8.325-9.769-12.83c-5.361-8.214-9.667-17.615-9.86-27.582c-0.208-10.758,4.874-20.559,13.182-27.246 c8.257-6.646,18.678-10.252,28.862-12.702c10.677-2.569,21.63-4.03,32.552-5.068c22.483-2.136,45.15-2.484,67.719-2.699 c22.883-0.219,45.766-0.114,68.648-0.485c22.6-0.366,45.353-0.941,67.757-4.175c5.495-0.793,10.976-1.768,16.357-3.144 c5.014-1.282,10.132-2.84,14.582-5.548c1.909-1.162,3.857-2.588,4.935-4.599c1.01-1.885,1.497-4.357,1.199-6.475 c-0.658-4.686-5.23-7.887-9.035-10.038c-4.513-2.552-9.459-4.287-14.435-5.685c-0.427-0.12-5.903-1.797-6.084-1.396 c0-0.787,0.345-1.699,0.507-2.462c0.378-1.778,0.761-3.555,1.145-5.331c0.377-1.74,0.755-3.479,1.141-5.218 c0.028-0.128,0.446-2.419,0.557-2.419c0.015,0.326,4.416,1.143,4.822,1.246c4.745,1.198,9.432,2.707,13.93,4.639 c8.251,3.544,16.441,8.776,20.666,16.989C457.966,293.413,458.674,299.123,457.58,304.57z"/><path style="fill:#BCE6F5;" d="M479.16,172.7H10.84C41.69,72.68,134.86,0,245,0S448.31,72.68,479.16,172.7z"/><g> <path style="fill:#F75454;" d="M235.31,311.07l-90.88,157.41c-16.6-7.49-32.23-16.77-46.62-27.6L22.87,311.07 C-6.44,260.3,5.19,201.66,40.82,164.48c21.76-22.7,52.47-37.39,88.27-37.39C223.51,127.09,282.52,229.3,235.31,311.07z"/> <path style="fill:#BCE6F5;" d="M192.986,249.739c0,30.093-20.804,55.322-48.812,62.102c-4.837,1.184-9.894,1.801-15.091,1.801 c-35.277,0-63.891-28.613-63.891-63.903c0-35.278,28.613-63.891,63.891-63.891c5.198,0,10.254,0.618,15.091,1.801 C172.183,194.43,192.986,219.659,192.986,249.739z"/> <path style="fill:#FFFFFF;" d="M192.986,249.739c0,30.093-20.804,55.322-48.812,62.102c-28.008-6.78-48.799-32.01-48.799-62.102 c0-30.08,20.791-55.309,48.799-62.089C172.183,194.43,192.986,219.659,192.986,249.739z"/> </g><g> <path style="fill:#F75454;" d="M367.161,269.136l77.693-134.568c34.53-59.808-8.632-134.567-77.693-134.567h0 c-69.06,0-112.223,74.76-77.693,134.567L367.161,269.136z"/> <path style="fill:#BCE6F5;" d="M413.897,89.709c0,22.011-15.216,40.464-35.702,45.423c-3.538,0.866-7.236,1.317-11.038,1.317 c-25.803,0-46.731-20.928-46.731-46.741c0-25.803,20.928-46.731,46.731-46.731c3.802,0,7.5,0.452,11.038,1.317 C398.681,49.254,413.897,67.708,413.897,89.709z"/> <path style="fill:#FFFFFF;" d="M413.897,89.709c0,22.011-15.216,40.464-35.702,45.423c-20.486-4.959-35.693-23.413-35.693-45.423 c0-22.001,15.207-40.455,35.693-45.414C398.681,49.254,413.897,67.708,413.897,89.709z"/> </g></symbol><symbol id="speaker" viewBox="-3 0 512 512"><title>speaker</title><path d="m356.152344 318.792969h-205.347656v-221.988281c0-53.464844 43.339843-96.804688 96.800781-96.804688h11.742187c53.464844 0 96.804688 43.339844 96.804688 96.804688zm0 0" fill="#5c546a"/><path d="m253.476562 0c-7.789062 0-15.375.871094-22.667968 2.515625 45.796875 10.324219 82.902344 58.113281 82.902344 107.027344l-162.90625 30.070312v179.175781h205.347656v-216.113281c0-56.707031-45.96875-102.675781-102.675782-102.675781zm0 0" fill="#4f495b"/><path d="m181.570312 160.605469h-6.699218c-13.292969 0-24.066406-10.777344-24.066406-24.070313v-2.917968c0-13.292969 10.773437-24.070313 24.066406-24.070313h6.699218zm0 0" fill="#fac5aa"/><path d="m325.382812 160.605469h6.699219c13.292969 0 24.070313-10.777344 24.070313-24.070313v-2.917968c0-13.292969-10.777344-24.070313-24.070313-24.070313h-6.699219zm0 0" fill="#fac5aa"/><path d="m422.585938 422.550781h-339.636719c-9.308594 0-16.128907-8.765625-13.84375-17.789062l15.765625-62.222657c4.765625-18.804687 18.480468-34.058593 36.679687-40.777343l114.957031-42.464844c10.492188-3.875 22.023438-3.875 32.515626 0l114.960937 42.464844c18.195313 6.722656 31.914063 21.972656 36.675781 40.777343l15.765625 62.222657c2.285157 9.023437-4.535156 17.789062-13.839843 17.789062zm0 0" fill="#fbb0ff"/><path d="m436.425781 404.761719-15.765625-62.222657c-4.761718-18.804687-18.480468-34.058593-36.675781-40.777343l-114.960937-42.464844c-10.492188-3.875-22.023438-3.875-32.515626 0l-5.292968 1.957031 109.664062 40.507813c18.195313 6.722656 31.914063 21.972656 36.679688 40.777343l15.761718 62.226563c2.285157 9.019531-4.535156 17.785156-13.839843 17.785156h43.105469c9.304687 0 16.125-8.765625 13.839843-17.789062zm0 0" fill="#ff9cea"/><path d="m208.136719 269.773438-31.253907 11.546874 38.132813 37.921876c2.949219 2.933593 7.664063 3.082031 10.789063.34375l26.960937-23.617188zm0 0" fill="#ff7bca"/><path d="m297.007812 269.632812 31.644532 11.6875-39.320313 37.972657c-3.003906 2.902343-7.742187 2.96875-10.824219.15625l-25.742187-23.480469zm0 0" fill="#ff7bca"/><path d="m252.765625 408.605469c-3.605469 0-6.527344-2.921875-6.527344-6.527344v-76.320313c0-3.605468 2.921875-6.53125 6.527344-6.53125s6.53125 2.925782 6.53125 6.53125v76.320313c0 3.605469-2.925781 6.527344-6.53125 6.527344zm0 0" fill="#ff7bca"/><path d="m297.007812 269.632812v-49.535156h-88.871093v49.675782l44.628906 26.195312zm0 0" fill="#fabaa1"/><path d="m310.148438 109.542969c-12.449219-.679688-32.960938-3.394531-55.515626-14.320313-17.371093-8.414062-29.992187-18.808594-38.316406-26.960937-1.230468-1.207031-3.300781-.632813-3.730468 1.035156-1.6875 6.574219-5.828126 17.734375-16.152344 27.195313-9.613282 8.808593-19.953125 11.894531-25.039063 13.050781l6.503907 85.0625c1.785156 16.890625 13.136718 31.253906 29.164062 36.878906l30.914062 10.839844c9.253907 3.246093 19.316407 3.308593 28.605469.164062l33.117188-11.167969c16.289062-5.503906 27.882812-20.023437 29.652343-37.140624l6.351563-84.636719zm0 0" fill="#fdd7bd"/><path d="m232.632812 95.222656c22.558594 10.925782 43.066407 13.640625 55.515626 14.320313h22c-12.449219-.679688-32.960938-3.394531-55.515626-14.320313-17.371093-8.414062-29.992187-18.808594-38.316406-26.960937-1.230468-1.207031-3.300781-.632813-3.730468 1.035156-.761719 2.964844-2.03125 6.867187-4.132813 11.125 6.707031 5.066406 14.738281 10.226563 24.179687 14.800781zm0 0" fill="#fac5aa"/><path d="m313.710938 109.542969-9.761719 98.054687c-1.058594 10.234375-5.632813 19.539063-12.621094 26.542969l8.371094-2.820313c16.289062-5.503906 27.886719-20.023437 29.652343-37.140624l6.355469-84.636719zm0 0" fill="#fac5aa"/><g fill="#5c546a"><path d="m224.902344 135.570312c0 4.210938-3.414063 7.621094-7.621094 7.621094s-7.621094-3.410156-7.621094-7.621094c0-4.207031 3.414063-7.621093 7.621094-7.621093s7.621094 3.414062 7.621094 7.621093zm0 0"/><path d="m292.5625 135.570312c0 4.210938-3.410156 7.621094-7.617188 7.621094-4.210937 0-7.621093-3.410156-7.621093-7.621094 0-4.207031 3.410156-7.621093 7.621093-7.621093 4.207032 0 7.617188 3.414062 7.617188 7.621093zm0 0"/><path d="m281.097656 190.839844c-1.957031-3.03125-5.996094-3.902344-9.027344-1.949219-4.96875 3.199219-10.476562 5.085937-16 5.527344l-5.023437.011719c-6.808594-.542969-12.351563-3.164063-15.996094-5.476563-3.042969-1.929687-7.078125-1.03125-9.011719 2.015625-1.929687 3.046875-1.027343 7.078125 2.015626 9.011719 5.570312 3.535156 14.402343 7.617187 25.484374 7.617187.621094 0 1.253907-.015625 1.886719-.042968 8.242188-.339844 16.441407-3 23.71875-7.6875 3.03125-1.953126 3.90625-5.996094 1.953125-9.027344zm0 0"/></g><path d="m63.023438 357.417969c-4.34375 0-7.867188-3.519531-7.867188-7.867188v-41.765625c0-9.78125 4.417969-18.847656 12.117188-24.878906l52.722656-42.078125c3.398437-2.714844 8.347656-2.15625 11.058594 1.238281 2.710937 3.398438 2.15625 8.347656-1.238282 11.058594l-52.78125 42.128906c-3.925781 3.070313-6.140625 7.621094-6.140625 12.53125v41.765625c0 4.347657-3.523437 7.867188-7.871093 7.867188zm0 0" fill="#868491"/><path d="m493.214844 456.097656h-481.285156c-6.589844 0-11.929688-5.34375-11.929688-11.933594v-49.386718c0-6.589844 5.34375-11.929688 11.929688-11.929688h481.285156c6.589844 0 11.929687 5.339844 11.929687 11.929688v49.386718c0 6.589844-5.339843 11.933594-11.929687 11.933594zm0 0" fill="#e6be94"/><path d="m41.566406 512v-55.84375h422.007813v55.84375" fill="#f7cda9"/><path d="m41.566406 456.15625v27.921875h367.183594c15.421875 0 27.921875 12.5 27.921875 27.921875h26.90625v-55.84375zm0 0" fill="#ddb08c"/><path d="m89.253906 382.84375h-52.457031v-21.496094c0-6.515625 5.28125-11.796875 11.796875-11.796875h28.863281c6.515625 0 11.796875 5.28125 11.796875 11.796875zm0 0" fill="#5c546a"/><path d="m125.285156 247.472656-.757812-.988281c-4.25-5.550781-3.195313-13.492187 2.355468-17.742187l13.78125-10.550782c5.546876-4.25 13.492188-3.195312 17.738282 2.355469l.757812.984375c4.25 5.550781 3.195313 13.492188-2.355468 17.742188l-13.78125 10.550781c-5.546876 4.25-13.492188 3.195312-17.738282-2.351563zm0 0" fill="#5c546a"/></symbol><symbol id="calendar" viewBox="0 0 512 512"><title>calendar</title><g> <path style="fill:#D8DCE1;" d="M0,134v328c0,22.055,17.945,40,40,40h432c22.055,0,40-17.945,40-40V134H0z"/> </g><g> <path style="fill:#FF4F19;" d="M472,22H40C17.945,22,0,39.945,0,62v72h512V62C512,39.945,494.054,22,472,22z M64,102 c-13.255,0-24-10.745-24-24s10.745-24,24-24s24,10.745,24,24S77.255,102,64,102z M448,102c-13.255,0-24-10.745-24-24 s10.745-24,24-24s24,10.745,24,24S461.255,102,448,102z"/> </g><g> <g> <path style="fill:#FFFFFF;" d="M256,206c-17.648,0-32,14.352-32,32s14.352,32,32,32s32-14.352,32-32S273.648,206,256,206z"/> </g> <g> <path style="fill:#FFFFFF;" d="M176,206c-17.648,0-32,14.352-32,32s14.352,32,32,32s32-14.352,32-32S193.648,206,176,206z"/> </g> <g> <path style="fill:#FFFFFF;" d="M96,206c-17.648,0-32,14.352-32,32s14.352,32,32,32s32-14.352,32-32S113.648,206,96,206z"/> </g> <g> <path style="fill:#FFFFFF;" d="M336,206c-17.648,0-32,14.352-32,32s14.352,32,32,32c17.648,0,32-14.352,32-32 S353.648,206,336,206z"/> </g> <g> <path style="fill:#FFFFFF;" d="M416,270c17.648,0,32-14.352,32-32s-14.352-32-32-32c-17.648,0-32,14.352-32,32 S398.351,270,416,270z"/> </g> <g> <path style="fill:#FFFFFF;" d="M256,286c-17.648,0-32,14.352-32,32s14.352,32,32,32s32-14.352,32-32S273.648,286,256,286z"/> </g> <g> <path style="fill:#FFFFFF;" d="M176,286c-17.648,0-32,14.352-32,32s14.352,32,32,32s32-14.352,32-32S193.648,286,176,286z"/> </g> <g> <path style="fill:#FFFFFF;" d="M96,286c-17.648,0-32,14.352-32,32s14.352,32,32,32s32-14.352,32-32S113.648,286,96,286z"/> </g> <g> <path style="fill:#FFFFFF;" d="M336,286c-17.648,0-32,14.352-32,32s14.352,32,32,32c17.648,0,32-14.352,32-32 S353.648,286,336,286z"/> </g> <g> <path style="fill:#FFFFFF;" d="M416,286c-17.648,0-32,14.352-32,32s14.352,32,32,32c17.648,0,32-14.352,32-32 S433.648,286,416,286z"/> </g> <g> <path style="fill:#FFFFFF;" d="M256,366c-17.648,0-32,14.352-32,32c0,17.648,14.352,32,32,32s32-14.352,32-32 C288,380.351,273.648,366,256,366z"/> </g> <g> <path style="fill:#FFFFFF;" d="M176,366c-17.648,0-32,14.352-32,32c0,17.648,14.352,32,32,32s32-14.352,32-32 C208,380.351,193.648,366,176,366z"/> </g> <g> <path style="fill:#FFFFFF;" d="M96,366c-17.648,0-32,14.352-32,32c0,17.648,14.352,32,32,32s32-14.352,32-32 C128,380.351,113.648,366,96,366z"/> </g> <g> <path style="fill:#FFFFFF;" d="M336,366c-17.648,0-32,14.352-32,32c0,17.648,14.352,32,32,32c17.648,0,32-14.352,32-32 C368,380.351,353.648,366,336,366z"/> </g> <g> <path style="fill:#FFFFFF;" d="M416,366c-17.648,0-32,14.352-32,32c0,17.648,14.352,32,32,32c17.648,0,32-14.352,32-32 C448,380.351,433.648,366,416,366z"/> </g> </g><g> <g> <path style="fill:#5C546A;" d="M64,90c-6.625,0-12-5.371-12-12V22c0-6.629,5.375-12,12-12s12,5.371,12,12v56 C76,84.629,70.625,90,64,90z"/> </g> </g><g> <g> <path style="fill:#5C546A;" d="M448,90c-6.625,0-12-5.371-12-12V22c0-6.629,5.375-12,12-12s12,5.371,12,12v56 C460,84.629,454.625,90,448,90z"/> </g> </g><g> <circle style="fill:#FFD200;" cx="96" cy="238" r="32"/> </g><g> <circle style="fill:#FF9600;" cx="256" cy="398" r="32"/> </g><g> <circle style="fill:#FF4F19;" cx="336" cy="318" r="32"/> </g></symbol><symbol id="team" viewBox="0 0 512.00104 512"><title>team</title><path d="m512 256c0 102.535156-60.28125 190.996094-147.339844 231.859375-27.03125 12.695313-56.644531 20.792969-87.84375 23.300781-6.867187.554688-13.804687.835938-20.816406.835938-8.230469 0-16.394531-.386719-24.4375-1.160156-10.28125-.960938-20.386719-2.546876-30.269531-4.699219-20.15625-4.390625-39.414063-11.148438-57.480469-19.96875-54.378906-26.550781-97.949219-71.804688-122.335938-127.382813-13.8125-31.460937-21.47265575-66.226562-21.47265575-102.785156 0-141.386719 114.61328175-256 255.99609375-256 141.386719 0 256 114.613281 256 256zm0 0" fill="#3fb777"/><path d="m489.023438 330.101562v32.046876c-25.222657 55.285156-69.539063 100.019531-124.511719 125.785156-9.957031 4.660156-20.269531 8.703125-30.886719 12.070312-11.941406 3.8125-24.261719 6.75-36.902344 8.765625-.054687.007813-.117187.019531-.167968.019531v-178.6875c0-38.085937 29.328124-69.328124 66.652343-72.335937 1.964844-.167969 3.941407-.242187 5.933594-.242187h47.273437c5.589844 0 11.035157.617187 16.257813 1.820312 32.265625 7.375 56.351563 36.265625 56.351563 70.757812zm0 0" fill="#bfd5de"/><path d="m489.023438 330.101562v32.046876c-25.222657 55.285156-69.539063 100.019531-124.511719 125.785156-9.957031 4.660156-20.269531 8.703125-30.886719 12.070312v-169.902344c0-40.082031 32.507812-72.578124 72.601562-72.578124h10.195313c40.105469 0 72.601563 32.496093 72.601563 72.578124zm0 0" fill="#dde8ed"/><path d="m321.738281 177.464844c0 11.988281-8.761719 21.929687-20.230469 23.777344-1.25.203124-2.542968.308593-3.855468.308593-13.308594 0-24.085938-10.78125-24.085938-24.085937 0-13.304688 10.777344-24.085938 24.085938-24.085938 1.3125 0 2.605468.105469 3.855468.308594 11.46875 1.847656 20.230469 11.789062 20.230469 23.777344zm0 0" fill="#d3a489"/><path d="m412.273438 283.710938-19.488282 31.253906-19.484375-31.253906" fill="#f74f4f"/><path d="m419.003906 403.261719-26.214844 33.089843-26.226562-33.089843 26.230469-96.429688zm0 0" fill="#f74f4f"/><path d="m321.738281 177.464844c0 11.988281-8.761719 21.929687-20.230469 23.777344-2.082031-7.578126-3.195312-15.546876-3.195312-23.777344 0-8.226563 1.113281-16.199219 3.195312-23.777344 11.46875 1.847656 20.230469 11.789062 20.230469 23.777344zm0 0" fill="#bf8e75"/><path d="m306.261719 177.464844c0 4.753906-3.855469 8.609375-8.609375 8.609375s-8.609375-3.855469-8.609375-8.609375 3.855469-8.609375 8.609375-8.609375 8.609375 3.855469 8.609375 8.609375zm0 0" fill="#bf8e75"/><path d="m392.78125 287.234375-32.683594 18.164063-9.941406-46.242188 20.308594-11.960938" fill="#bfd5de"/><path d="m392.78125 287.234375 32.679688 18.164063 9.941406-46.242188-20.304688-11.960938" fill="#bfd5de"/><path d="m463.828125 177.464844c0 11.988281 8.757813 21.929687 20.226563 23.777344 1.253906.203124 2.546874.308593 3.859374.308593 13.308594 0 24.085938-10.78125 24.085938-24.085937 0-13.304688-10.777344-24.085938-24.085938-24.085938-1.3125 0-2.605468.105469-3.859374.308594-11.46875 1.847656-20.226563 11.789062-20.226563 23.777344zm0 0" fill="#d3a489"/><g fill="#bf8e75"><path d="m463.828125 177.464844c0 11.988281 8.757813 21.929687 20.226563 23.777344 2.085937-7.578126 3.199218-15.546876 3.199218-23.777344 0-8.226563-1.113281-16.199219-3.199218-23.777344-11.46875 1.847656-20.226563 11.789062-20.226563 23.777344zm0 0"/><path d="m496.523438 177.464844c0 4.753906-3.855469 8.609375-8.609376 8.609375-4.753906 0-8.609374-3.855469-8.609374-8.609375s3.855468-8.609375 8.609374-8.609375c4.753907 0 8.609376 3.855469 8.609376 8.609375zm0 0"/><path d="m482.398438 164.664062c0 44.59375-32.578126 81.589844-75.230469 88.457032-4.679688.769531-9.484375 1.15625-14.382813 1.15625-49.496094 0-89.617187-40.117188-89.617187-89.613282 0-23.417968 8.136719-58.574218 22.839843-74.539062 16.378907-17.777344 40.699219-15.078125 66.777344-15.078125 4.898438 0 9.703125.390625 14.382813 1.160156 42.652343 6.867188 75.230469 43.859375 75.230469 88.457031zm0 0"/><path d="m418.683594 229.554688v31.785156c0 11.636718-7.671875 21.472656-18.242188 24.738281-2.417968.75-4.996094 1.15625-7.660156 1.15625-14.304688 0-25.898438-11.589844-25.898438-25.894531v-31.785156zm0 0"/></g><path d="m418.683594 259.328125v2.011719c0 11.636718-7.671875 21.472656-18.242188 24.742187-9.535156-2.933593-16.703125-11.222656-18.027344-21.367187 1.730469.105468 3.46875.160156 5.21875.160156 4.902344 0 9.703126-.390625 14.382813-1.160156 5.765625-.925782 11.335937-2.410156 16.667969-4.386719zm0 0" fill="#d3a489"/><path d="m482.398438 164.664062c0 44.59375-32.578126 81.589844-75.230469 88.457032-42.65625-6.867188-75.234375-43.863282-75.234375-88.457032 0-27.460937 12.351562-52.039062 31.8125-68.480468 12.128906-10.257813 27.035156-17.339844 43.421875-19.980469 39.765625 6.402344 70.78125 39 74.789062 79.523437.292969 2.941407.441407 5.925782.441407 8.9375zm0 0" fill="#d3a489"/><path d="m392.785156 208.800781c-7.503906 0-15.007812-1.882812-21.847656-5.640625-1.929688-1.0625-2.636719-3.484375-1.574219-5.414062 1.0625-1.929688 3.484375-2.632813 5.414063-1.574219 11.277344 6.199219 24.738281 6.199219 36.015625 0 1.925781-1.058594 4.351562-.355469 5.414062 1.574219 1.058594 1.929687.355469 4.351562-1.574219 5.414062-6.839843 3.757813-14.34375 5.640625-21.847656 5.640625zm0 0" fill="#bf8e75"/><path d="m373.699219 159.445312c0 5.617188-4.550781 10.167969-10.164063 10.167969-5.617187 0-10.167968-4.550781-10.167968-10.167969 0-5.613281 4.550781-10.164062 10.167968-10.164062 5.613282 0 10.164063 4.550781 10.164063 10.164062zm0 0" fill="#3d4159"/><path d="m432.199219 159.445312c0 5.617188-4.550781 10.167969-10.164063 10.167969-5.613281 0-10.167968-4.550781-10.167968-10.167969 0-5.613281 4.554687-10.164062 10.167968-10.164062 5.613282 0 10.164063 4.550781 10.164063 10.164062zm0 0" fill="#3d4159"/><path d="m371.628906 157.652344c0 2.40625-1.953125 4.355468-4.359375 4.355468s-4.355469-1.949218-4.355469-4.355468 1.949219-4.355469 4.355469-4.355469 4.359375 1.949219 4.359375 4.355469zm0 0" fill="#fff"/><path d="m430.628906 157.652344c0 2.40625-1.953125 4.355468-4.359375 4.355468s-4.355469-1.949218-4.355469-4.355468 1.949219-4.355469 4.355469-4.355469 4.359375 1.949219 4.359375 4.355469zm0 0" fill="#fff"/><path d="m402.949219 185.042969h-20.332031c-2.421876 0-4.382813-1.964844-4.382813-4.386719s1.960937-4.382812 4.382813-4.382812h20.332031c2.421875 0 4.386719 1.960937 4.386719 4.382812s-1.964844 4.386719-4.386719 4.386719zm0 0" fill="#bf8e75"/><path d="m422.289062 327.722656h39.066407v11.960938h-39.066407zm0 0" fill="#bfd5de"/><path d="m387.539062 49.445312c27.148438 1.941407 48.945313 23.871094 50.324219 51.476563l.257813 5.183594h15.617187l8.410157 55.929687 20.371093-6.304687-2.734375-54.808594c-1.445312-28.996094-25.429687-51.722656-54.453125-51.617187zm0 0" fill="#2a2f4f"/><path d="m478.058594 27.816406c21.617187 21.617188 21.617187 56.667969 0 78.285156-21.617188 21.617188-56.667969 21.617188-78.285156 0zm0 0" fill="#3d4159"/><path d="m399.777344 106.101562h-67.941406l-8.414063 55.933594-20.371094-6.304687 2.734375-54.808594c1.441406-28.992187 25.425782-51.726563 54.453125-51.617187l98.121094.371093 12.972656 23.347657" fill="#3d4159"/><path d="m398.027344 49.445312c-27.144532 1.941407-48.941406 23.871094-50.324219 51.476563l-.257813 5.183594h-15.613281l-8.414062 55.929687-20.371094-6.304687 2.738281-54.808594c1.441406-28.996094 25.425782-51.722656 54.449219-51.617187zm0 0" fill="#2a2f4f"/><path d="m201.292969 332.246094v173.890625c-80.78125-17.585938-147.320313-73.300781-179.816407-147.351563v-26.539062c0-31.378906 21.304688-57.785156 50.246094-65.515625 1.058594-.292969 2.121094-.554688 3.210938-.785157 2.871094-.625 5.820312-1.054687 8.816406-1.292968 1.828125-.148438 3.679688-.230469 5.550781-.230469h44.167969c4.941406 0 9.746094.519531 14.386719 1.523437.273437.054688.53125.117188.792969.179688.785156.175781 1.558593.363281 2.332031.574219.03125.011719.03125.011719.0625.019531 7.636719 2.039062 14.742187 5.382812 21.054687 9.769531 17.648438 12.246094 29.195313 32.652344 29.195313 55.757813zm0 0" fill="#3d4159"/><path d="m151.207031 265.949219-.164062.769531-21.636719 100.601562c-1.117188.097657-2.242188.183594-3.367188.261719-1.582031.101563-3.175781.199219-4.777343.269531-3.273438.15625-6.5625.234376-9.867188.234376-3.394531 0-6.761719-.078126-10.113281-.242188-1.515625-.070312-3.03125-.15625-4.546875-.269531-1.132813-.078125-2.257813-.15625-3.382813-.25l-21.625-100.597657-.164062-.777343zm0 0" fill="#66baed"/><path d="m129.59375 288.894531-18.207031 29.203125-18.207031-29.203125" fill="#dde8ed"/><path d="m126.039062 367.582031c-1.582031.101563-11.339843 51.703125-14.648437 51.703125-3.394531 0-13.140625-51.597656-14.65625-51.710937l14.65625-57.078125zm0 0" fill="#dde8ed"/><path d="m111.378906 292.1875-30.53125 16.96875-9.289062-43.203125 18.972656-11.175781" fill="#2ba1cf"/><path d="m111.378906 292.1875 30.535156 16.96875 9.289063-43.203125-18.972656-11.175781" fill="#2ba1cf"/><path d="m152.359375 324.25h9.683594l-41.554688 107.550781-8.179687 21.179688-9.070313-22.535157 8.347657-28.664062 39.394531-135.082031.230469-.753907 20.886718 6.824219zm0 0" fill="#2a2f4f"/><path d="m120.488281 431.800781-8.179687 21.179688-9.070313-22.535157-42.746093-106.195312h9.695312l-19.746094-51.480469 20.894532-6.824219.222656.753907 40.027344 135.082031zm0 0" fill="#2a2f4f"/><path d="m135.582031 238.296875v29.699219c0 10.871094-7.167969 20.058594-17.042969 23.109375-2.257812.703125-4.667968 1.082031-7.15625 1.082031-13.363281 0-24.195312-10.828125-24.195312-24.195312v-29.695313zm0 0" fill="#eab599"/><path d="m135.582031 266.113281v1.882813c0 10.871094-7.167969 20.058594-17.042969 23.109375-8.90625-2.738281-15.605468-10.484375-16.84375-19.960938 1.617188.097657 3.242188.148438 4.875.148438 4.578126 0 9.066407-.363281 13.4375-1.082031 5.386719-.863282 10.59375-2.25 15.574219-4.097657zm0 0" fill="#f6caae"/><path d="m45.003906 189.628906c0 11.203125-8.179687 20.492188-18.894531 22.214844-1.171875.191406-2.378906.289062-3.605469.289062-12.433594 0-22.503906-10.070312-22.503906-22.503906 0-12.429687 10.070312-22.503906 22.503906-22.503906 1.226563 0 2.433594.101562 3.605469.289062 10.714844 1.726563 18.894531 11.011719 18.894531 22.214844zm0 0" fill="#f6caae"/><path d="m45.003906 189.628906c0 11.203125-8.179687 20.492188-18.894531 22.214844-1.949219-7.078125-2.988281-14.527344-2.988281-22.214844s1.039062-15.136718 2.988281-22.214844c10.714844 1.726563 18.894531 11.011719 18.894531 22.214844zm0 0" fill="#eab599"/><path d="m30.546875 189.628906c0 4.441406-3.601563 8.042969-8.042969 8.042969s-8.042968-3.601563-8.042968-8.042969 3.601562-8.042968 8.042968-8.042968 8.042969 3.601562 8.042969 8.042968zm0 0" fill="#eab599"/><path d="m177.761719 189.628906c0 11.203125 8.183593 20.492188 18.898437 22.214844 1.171875.191406 2.375.289062 3.605469.289062 12.429687 0 22.5-10.070312 22.5-22.503906 0-12.429687-10.070313-22.503906-22.5-22.503906-1.230469 0-2.433594.101562-3.605469.289062-10.714844 1.726563-18.898437 11.011719-18.898437 22.214844zm0 0" fill="#f6caae"/><path d="m177.761719 189.628906c0 11.203125 8.183593 20.492188 18.898437 22.214844 1.945313-7.078125 2.984375-14.527344 2.984375-22.214844s-1.039062-15.136718-2.984375-22.214844c-10.714844 1.726563-18.898437 11.011719-18.898437 22.214844zm0 0" fill="#eab599"/><path d="m195.109375 145.789062v31.882813c0 41.664063-30.4375 76.226563-70.289063 82.640625-.132812.023438-.277343.042969-.410156.066406-4.238281.679688-8.589844 1.015625-13.027344 1.015625-46.238281 0-83.722656-37.484375-83.722656-83.722656v-31.882813c0-9.738281 1.660156-19.09375 4.730469-27.785156 11.449219-32.582031 42.496094-55.945312 78.992187-55.945312h.003907c4.433593 0 8.792969.34375 13.039062 1.011718 40.046875 6.261719 70.683594 40.914063 70.683594 82.71875zm0 0" fill="#eab599"/><path d="m208.304688 189.628906c0 4.441406-3.597657 8.042969-8.039063 8.042969-4.445313 0-8.042969-3.601563-8.042969-8.042969s3.597656-8.042968 8.042969-8.042968c4.441406 0 8.039063 3.601562 8.039063 8.042968zm0 0" fill="#eab599"/><path d="m195.109375 145.789062v31.882813c0 41.664063-30.4375 76.226563-70.289063 82.640625-.132812.023438-.277343.042969-.410156.066406-40.046875-6.257812-70.675781-40.910156-70.675781-82.707031v-31.882813c0-41.804687 30.636719-76.457031 70.691406-82.71875 40.046875 6.261719 70.683594 40.914063 70.683594 82.71875zm0 0" fill="#f6caae"/><path d="m93.554688 172.796875c0 5.242187-4.253907 9.496094-9.5 9.496094-5.242188 0-9.496094-4.253907-9.496094-9.496094 0-5.246094 4.253906-9.5 9.496094-9.5 5.246093 0 9.5 4.253906 9.5 9.5zm0 0" fill="#3d4159"/><path d="m148.210938 172.796875c0 5.242187-4.25 9.496094-9.496094 9.496094s-9.5-4.253907-9.5-9.496094c0-5.246094 4.253906-9.5 9.5-9.5s9.496094 4.253906 9.496094 9.5zm0 0" fill="#3d4159"/><path d="m91.617188 171.121094c0 2.246094-1.820313 4.066406-4.070313 4.066406-2.246094 0-4.070313-1.820312-4.070313-4.066406 0-2.25 1.824219-4.070313 4.070313-4.070313 2.25 0 4.070313 1.820313 4.070313 4.070313zm0 0" fill="#fff"/><path d="m146.742188 171.121094c0 2.246094-1.824219 4.066406-4.070313 4.066406s-4.070313-1.820312-4.070313-4.066406c0-2.25 1.824219-4.070313 4.070313-4.070313s4.070313 1.820313 4.070313 4.070313zm0 0" fill="#fff"/><path d="m120.882812 192.984375h-18.996093c-2.261719 0-4.097657-1.832031-4.097657-4.097656 0-2.261719 1.835938-4.097657 4.097657-4.097657h18.996093c2.261719 0 4.097657 1.835938 4.097657 4.097657s-1.835938 4.097656-4.097657 4.097656zm0 0" fill="#eab599"/><path d="m111.382812 218.90625c-7.007812 0-14.019531-1.757812-20.410156-5.269531-1.800781-.992188-2.460937-3.257813-1.46875-5.058594.992188-1.804687 3.253906-2.460937 5.058594-1.46875 10.535156 5.789063 23.113281 5.789063 33.648438 0 1.800781-.992187 4.066406-.335937 5.054687 1.46875.992187 1.800781.335937 4.066406-1.46875 5.058594-6.390625 3.511719-13.402344 5.269531-20.414063 5.269531zm0 0" fill="#eab599"/><path d="m195.109375 116.855469v32.660156h-15.582031v-25.578125l-112.484375-20.902344-23.800781-4.425781v50.90625h-15.582032v-32.660156c0-37.230469 30.175782-67.40625 67.398438-67.40625h32.648437c.886719 0 1.773438.011719 2.660157.058593 35.988281 1.382813 64.742187 31.003907 64.742187 67.347657zm0 0" fill="#e8c934"/><path d="m195.109375 116.855469v32.660156h-15.582031v-25.578125l-112.484375-20.902344c6.199219-29.765625 32.023437-52.320312 63.324219-53.527344 35.988281 1.382813 64.742187 31.003907 64.742187 67.347657zm0 0" fill="#ffe152"/><path d="m364.660156 470.171875v17.6875c-32.976562 15.484375-69.808594 24.136719-108.660156 24.136719-18.773438 0-37.082031-2.015625-54.707031-5.859375-7.085938-1.546875-14.054688-3.375-20.910157-5.496094-12.632812-3.898437-24.859374-8.757813-36.570312-14.472656v-15.996094c0-38.535156 26.164062-70.960937 61.710938-80.46875 1.296874-.34375 2.601562-.667969 3.929687-.949219 3.53125-.765625 7.15625-1.296875 10.84375-1.601562 2.246094-.1875 4.515625-.269532 6.8125-.269532h54.242187c6.058594 0 11.972657.636719 17.667969 1.871094.324219.0625.660157.132813.972657.207032.960937.21875 1.921874.460937 2.863281.722656.03125 0 .050781 0 .070312.007812 9.386719 2.507813 18.109375 6.617188 25.863281 12.007813 21.679688 15.035156 35.871094 40.101562 35.871094 68.472656zm0 0" fill="#e8c934"/><path d="m364.660156 470.171875v17.6875c-32.976562 15.484375-69.808594 24.136719-108.660156 24.136719-18.773438 0-37.082031-2.015625-54.707031-5.859375-7.085938-1.546875-14.054688-3.375-20.910157-5.496094v-30.46875c0-38.535156 26.164063-70.960937 61.710938-80.46875 1.296875-.34375 2.601562-.667969 3.929688-.949219 3.53125-.765625 7.15625-1.296875 10.84375-1.601562 2.25-.1875 4.515624-.269532 6.8125-.269532h17.671874c6.058594 0 11.972657.636719 17.667969 1.871094.324219.0625.660157.132813.972657.207032.960937.21875 1.921874.460937 2.863281.722656.03125 0 .050781 0 .070312.007812 9.386719 2.507813 18.109375 6.617188 25.863281 12.007813 21.679688 15.035156 35.871094 40.101562 35.871094 68.472656zm0 0" fill="#ffe152"/><path d="m303.136719 388.753906-.210938.9375-26.109375 121.46875c-6.867187.554688-13.804687.835938-20.816406.835938-8.230469 0-16.394531-.386719-24.4375-1.160156l-26.039062-121.132813-.210938-.949219zm0 0" fill="#f2f0ec"/><path d="m254.222656 420.976562-37.496094 20.839844-11.410156-53.0625 23.300782-13.722656" fill="#d8d5d0"/><path d="m254.222656 420.976562 37.5 20.839844 11.40625-53.0625-23.296875-13.722656" fill="#d8d5d0"/><path d="m142.265625 366.796875v-125.617187c0-12.765626 2.128906-25.269532 6.328125-37.167969 15.722656-44.738281 58.175781-74.808594 105.636719-74.808594 5.878906 0 11.746093.457031 17.445312 1.359375 26.078125 4.074219 50 17.382812 67.347657 37.476562 17.53125 20.308594 27.183593 46.285157 27.183593 73.140626v125.617187" fill="#f74f4f"/><path d="m188.324219 246.085938c0 44.433593 26.015625 95.835937 40.304687 120.710937h-86.367187v-125.617187c0-12.761719 2.128906-25.265626 6.328125-37.167969 15.625-44.480469 57.691406-74.460938 104.824218-74.796875-34.425781.859375-65.089843 56.085937-65.089843 116.871094zm0 0" fill="#dd3033"/><path d="m283.953125 354.792969v36.46875c0 13.351562-8.804687 24.636719-20.929687 28.386719-2.777344.859374-5.734376 1.328124-8.792969 1.328124-16.410157 0-29.714844-13.304687-29.714844-29.714843v-36.46875zm0 0" fill="#eab599"/><path d="m283.953125 388.953125v2.308594c0 13.351562-8.804687 24.636719-20.929687 28.386719-10.941407-3.363282-19.167969-12.875-20.6875-24.515626 1.984374.121094 3.980468.179688 5.988281.179688 5.621093 0 11.132812-.445312 16.503906-1.324219 6.613281-1.066406 13.007813-2.765625 19.125-5.035156zm0 0" fill="#f6caae"/><path d="m172.714844 295.019531c0 13.757813-10.050782 25.167969-23.207032 27.285157-1.441406.230468-2.917968.351562-4.429687.351562-15.265625 0-27.636719-12.367188-27.636719-27.636719 0-15.265625 12.371094-27.632812 27.636719-27.632812 1.511719 0 2.988281.121093 4.429687.351562 13.15625 2.117188 23.207032 13.523438 23.207032 27.28125zm0 0" fill="#f6caae"/><path d="m172.714844 295.019531c0 13.757813-10.050782 25.167969-23.207032 27.285157-2.390624-8.695313-3.667968-17.839844-3.667968-27.285157 0-9.441406 1.277344-18.585937 3.667968-27.28125 13.15625 2.117188 23.207032 13.523438 23.207032 27.28125zm0 0" fill="#eab599"/><path d="m154.957031 295.019531c0 5.457031-4.421875 9.878907-9.878906 9.878907-5.453125 0-9.875-4.421876-9.875-9.878907 0-5.453125 4.421875-9.875 9.875-9.875 5.457031 0 9.878906 4.421875 9.878906 9.875zm0 0" fill="#eab599"/><path d="m325.195312 259.734375v94.996094c-14.683593 14.015625-33.511718 23.722656-54.460937 27.097656-.164063.027344-.339844.054687-.503906.082031-5.203125.832032-10.546875 1.246094-16 1.246094-56.785157 0-102.820313-46.035156-102.820313-102.820312v-39.15625c0-5.011719.359375-9.945313 1.054688-14.765626 24.460937 17.59375 59.539062 15.855469 81.886718-5.269531 7.402344-6.988281 12.542969-15.3125 15.453126-24.140625 1.617187 15.460938 8.691406 30.507813 21.222656 42.355469 14.921875 14.089844 34.636718 20.886719 54.167968 20.375zm0 0" fill="#eab599"/><path d="m325.195312 259.734375v94.996094c-14.683593 14.015625-33.511718 23.722656-54.460937 27.097656-.164063.027344-.339844.054687-.503906.082031-49.179688-7.683594-86.796875-50.242187-86.796875-101.574218v-39.15625c0-1.042969.015625-2.074219.054687-3.109376 18.132813 1.855469 36.957031-3.777343 50.863281-16.925781 7.402344-6.988281 12.542969-15.3125 15.453126-24.140625 1.621093 15.460938 8.691406 30.507813 21.222656 42.355469 14.921875 14.089844 34.636718 20.886719 54.167968 20.375zm0 0" fill="#f6caae"/><path d="m309.453125 271.652344c0-9.433594-7.644531-17.078125-17.074219-17.078125-9.433594 0-17.078125 7.644531-17.078125 17.078125" fill="#eab599"/><path d="m233.179688 271.652344c0-9.433594-7.644532-17.078125-17.078126-17.078125-9.429687 0-17.074218 7.644531-17.074218 17.078125" fill="#eab599"/><path d="m227.765625 278.921875c0 6.441406-5.222656 11.664063-11.664063 11.664063-6.441406 0-11.664062-5.222657-11.664062-11.664063s5.222656-11.664063 11.664062-11.664063c6.441407 0 11.664063 5.222657 11.664063 11.664063zm0 0" fill="#3d4159"/><path d="m304.042969 278.921875c0 6.441406-5.222657 11.664063-11.664063 11.664063-6.445312 0-11.664062-5.222657-11.664062-11.664063s5.21875-11.664063 11.664062-11.664063c6.441406 0 11.664063 5.222657 11.664063 11.664063zm0 0" fill="#3d4159"/><path d="m265.902344 308.289062h-23.328125c-2.777344 0-5.03125-2.25-5.03125-5.03125 0-2.777343 2.253906-5.03125 5.03125-5.03125h23.328125c2.78125 0 5.03125 2.253907 5.03125 5.03125 0 2.78125-2.25 5.03125-5.03125 5.03125zm0 0" fill="#eab599"/><path d="m254.238281 340.125c-8.609375 0-17.21875-2.160156-25.066406-6.472656-2.214844-1.21875-3.023437-3.996094-1.804687-6.210938 1.214843-2.214844 3.996093-3.023437 6.210937-1.804687 12.9375 7.113281 28.386719 7.113281 41.324219 0 2.210937-1.21875 4.992187-.410157 6.210937 1.804687s.410157 4.992188-1.804687 6.210938c-7.847656 4.316406-16.457032 6.472656-25.070313 6.472656zm0 0" fill="#eab599"/><path d="m225.386719 276.863281c0 2.761719-2.234375 4.996094-4.996094 4.996094s-4.996094-2.234375-4.996094-4.996094 2.234375-4.996093 4.996094-4.996093 4.996094 2.234374 4.996094 4.996093zm0 0" fill="#fff"/><path d="m302.234375 276.863281c0 2.761719-2.234375 4.996094-4.996094 4.996094s-4.996093-2.234375-4.996093-4.996094 2.234374-4.996093 4.996093-4.996093 4.996094 2.234374 4.996094 4.996093zm0 0" fill="#fff"/><path d="m324.222656 307.332031c0 7.074219-5.734375 12.808594-12.808594 12.808594-7.074218 0-12.808593-5.734375-12.808593-12.808594s5.734375-12.808593 12.808593-12.808593c7.074219 0 12.808594 5.734374 12.808594 12.808593zm0 0" fill="#eab599"/><path d="m209.867188 307.332031c0 7.074219-5.734376 12.808594-12.808594 12.808594-7.074219 0-12.808594-5.734375-12.808594-12.808594s5.734375-12.808593 12.808594-12.808593c7.074218 0 12.808594 5.734374 12.808594 12.808593zm0 0" fill="#eab599"/></symbol><symbol id="diet" viewBox="0 0 512 512"><title>diet</title><rect x="60.802" y="73.52" style="fill:#48C1E1;" width="51.775" height="34.549"/><path style="fill:#046699;" d="M123.256,69.717c0,2.833-2.317,5.151-5.15,5.151H55.273c-2.833,0-5.15-2.318-5.15-5.151V32.59 c0-2.833,2.317-5.151,5.15-5.151h62.832c2.833,0,5.15,2.318,5.15,5.151L123.256,69.717L123.256,69.717z"/><g style="opacity:0.1;"> <path d="M71.606,69.717V32.59c0-2.833,2.317-5.151,5.151-5.151H55.273c-2.833,0-5.15,2.318-5.15,5.151v37.127 c0,2.833,2.317,5.151,5.15,5.151h21.484C73.924,74.868,71.606,72.55,71.606,69.717z"/> </g><path style="fill:#A2DFF9;" d="M44.752,353.582c0.265-0.109,0.471-0.327,0.564-0.598c0.094-0.271,0.066-0.569-0.074-0.818 c-0.429-0.758-0.646-1.503-0.646-2.213c0-5.512,12.229-11.413,30.436-11.413c5.859,0,11.567,0.651,16.507,1.884 c0.08,0.02,0.161,0.03,0.242,0.03c0.262,0,0.517-0.103,0.707-0.293c0.249-0.249,0.349-0.609,0.263-0.949 c-3.177-12.681-4.996-25.714-5.423-39.033c-0.006-0.155-0.016-0.31-0.021-0.466c-0.057-1.901-0.087-3.808-0.087-5.72 c0-2.306,1.871-4.182,4.172-4.182h9.035c0.284,0,0.556-0.121,0.745-0.333s0.28-0.495,0.249-0.778 c-0.148-1.325-0.217-2.432-0.217-3.485c0-14.09,9.01-26.396,22.421-30.621c0.276-0.087,0.501-0.29,0.616-0.556 c0.116-0.266,0.11-0.569-0.016-0.83c-1.218-2.541-2.072-5.197-2.54-7.893c-2.336-13.481,4.717-26.903,17.15-32.64 c0.47-0.217,0.697-0.757,0.523-1.245c-0.584-1.634-1.026-3.312-1.316-4.989c-1.896-10.938,2.382-21.546,10.306-28.263v-42.945 c0-15.81-12.905-28.745-28.68-28.745H53.709c-15.773,0-28.679,12.935-28.679,28.745V365.51 C30.777,360.666,37.402,356.61,44.752,353.582z"/><path style="fill:#046699;" d="M123.626,254.592c0.276-0.087,0.501-0.29,0.616-0.556c0.116-0.266,0.11-0.569-0.016-0.83 c-1.218-2.541-2.072-5.197-2.54-7.893c-2.336-13.481,4.717-26.903,17.15-32.64c0.47-0.217,0.697-0.757,0.523-1.245 c-0.584-1.634-1.026-3.312-1.316-4.989c-1.896-10.938,2.382-21.546,10.306-28.263V158.84H25.03v106.402h83.119 C112.028,260.352,117.333,256.575,123.626,254.592z"/><path style="opacity:0.1;enable-background:new ;" d="M56,341.114V135.232c0-15.81,12.905-28.745,28.679-28.745h-30.97 c-15.773,0-28.679,12.935-28.679,28.745V365.51c5.747-4.844,12.372-8.899,19.722-11.928c0.265-0.109,0.471-0.327,0.564-0.598 c0.094-0.271,0.066-0.569-0.074-0.818c-0.429-0.758-0.646-1.503-0.646-2.213C44.597,346.714,48.826,343.345,56,341.114z"/><path style="fill:#EF5050;" d="M242.54,188.248c0.289,1.668,0.438,3.398,0.441,5.143c0.001,0.518,0.396,0.949,0.912,0.995 c12.801,1.125,23.504,10.244,26.636,22.693c0.086,0.343,0.348,0.615,0.687,0.715c0.094,0.028,0.188,0.041,0.283,0.041 c0.25,0,0.494-0.094,0.682-0.269c5.216-4.865,11.707-7.789,18.772-8.455c0.501-0.047,0.89-0.46,0.905-0.963 c0.455-14.023,6.157-27.21,16.057-37.131c0.207-0.207,0.423-0.4,0.633-0.604c-2.19-13.962-8.624-27.379-19.336-38.115 c-2.107-2.11-5.522-2.111-7.632,0l-43.896,43.997C240.08,179.789,241.774,183.833,242.54,188.248z"/><g> <path style="fill:#C0272D;" d="M270.528,217.079c0.086,0.343,0.348,0.615,0.687,0.715c0.094,0.028,0.188,0.041,0.283,0.041 c0.25,0,0.494-0.094,0.682-0.269c2.548-2.377,5.404-4.282,8.48-5.695c-0.344-1.147-0.967-2.229-1.872-3.137l-7.281-7.299 c-2.924-2.932-7.673-2.939-10.606-0.013c-0.022,0.021-0.039,0.044-0.06,0.066C265.505,205.465,268.963,210.856,270.528,217.079z"/> <path style="fill:#C0272D;" d="M286.125,194.879h-10.296c-4.143,0-7.5-3.358-7.5-7.5s3.357-7.5,7.5-7.5h10.296 c4.143,0,7.5,3.358,7.5,7.5C293.625,191.522,290.268,194.879,286.125,194.879z"/> <path style="fill:#C0272D;" d="M274.376,174.159c-1.917,0-3.834-0.73-5.298-2.191c-2.932-2.926-2.936-7.675-0.011-10.607 l7.284-7.298c2.926-2.931,7.675-2.936,10.606-0.01c2.932,2.926,2.936,7.675,0.011,10.607l-7.284,7.298 C278.22,173.424,276.298,174.159,274.376,174.159z"/> </g><path style="fill:#89C947;" d="M368.404,158.862c-0.088-0.229-0.225-0.433-0.395-0.604c-0.171-0.171-0.374-0.307-0.603-0.397 c-20.771-8.273-44.401-3.386-60.201,12.449c-10.496,10.52-16.164,24.504-16.371,38.811c1.038-0.102,2.091-0.157,3.155-0.157 c15.554,0,28.547,11.17,31.431,25.926c11.342-1.848,22.082-7.188,30.565-15.69C371.784,203.363,376.659,179.68,368.404,158.862z"/><path style="fill:#D5E962;" d="M341.458,184.871c-2.932-2.926-7.681-2.921-10.606,0.012l-25.944,26.003 c4.897,1.785,9.239,4.735,12.694,8.514l23.869-23.923C344.397,192.545,344.391,187.796,341.458,184.871z"/><g> <path style="fill:#FFC502;" d="M379.175,244.754c0.261,1.512,0.395,3.069,0.396,4.629c0.001,0.518,0.397,0.949,0.912,0.995 c4.059,0.357,7.929,1.615,11.502,3.739c0.159,0.095,0.335,0.141,0.511,0.141c0.28,0,0.558-0.118,0.754-0.343 c0.853-0.977,1.584-1.768,2.304-2.489c6.036-6.05,13.335-10.368,21.294-12.722c0.747-2.764,1.152-5.668,1.152-8.669 c0-18.283-14.788-33.106-33.031-33.106c-15.558,0-28.597,10.785-32.099,25.3C365.914,222.455,376.938,231.848,379.175,244.754z"/> <path style="fill:#FFC502;" d="M152.809,289.091c-3.349-5.935-5.469-12.444-6.279-19.142c-9.746-1.594-18.02-7.836-22.259-16.599 c-13.884,3.918-24.065,16.694-24.065,31.862c0,1.314,0.1,2.604,0.249,3.878h52.354V289.091z"/> </g><path style="fill:#89C947;" d="M404.894,272.816c0.966,5.573,0.198,11.186-2.216,16.275h42.444 c10.023-14.076,12.446-32.446,5.929-48.886c-0.083-0.209-0.207-0.397-0.364-0.554s-0.345-0.282-0.553-0.365 c-19.077-7.598-40.777-3.11-55.288,11.433c-1.06,1.063-2.051,2.173-3.003,3.309C398.579,257.984,403.496,264.749,404.894,272.816z"/><path style="fill:#D5E962;" d="M402.678,289.091h9.275l14.793-14.826c2.926-2.932,2.92-7.681-0.013-10.606 c-2.932-2.926-7.681-2.921-10.606,0.012l-10.983,11.008C405.66,279.632,404.823,284.569,402.678,289.091z"/><path style="fill:#368C0E;" d="M271.677,217.658c-3.009-13.47-14.411-23.102-27.696-24.269c-0.003-1.753-0.145-3.528-0.455-5.313 c-2.946-16.996-19.133-28.375-36.153-25.412c-8.835,1.538-16.148,6.643-20.74,13.566c-6.649-4.967-15.254-7.3-24.089-5.763 c-17.023,2.964-28.432,19.146-25.484,36.142c0.308,1.785,0.77,3.505,1.359,5.155c-12.56,5.795-20.187,19.466-17.717,33.719 c2.334,13.473,12.993,23.406,25.791,25.472c-1.24-8.592-0.245-17.46,3.076-25.837c0.032-0.082,0.08-0.154,0.143-0.218 c0.061-0.061,0.135-0.109,0.216-0.142c5.958-2.373,12.22-3.577,18.61-3.577c13.441,0,26.084,5.251,35.599,14.787 c0.688,0.691,1.348,1.404,1.991,2.128c-0.532-3.448-0.808-6.958-0.808-10.515c0-2.43,1.971-4.407,4.394-4.407h52.364 c-0.045-0.696-0.078-1.396-0.078-2.104C262,231.928,265.698,223.65,271.677,217.658z"/><g> <path style="fill:#89C947;" d="M162.155,220.587c-0.044,0-0.087-0.001-0.13-0.001c-4.142-0.07-7.442-3.484-7.372-7.626 c0.22-12.985,10.87-23.408,23.82-23.408c0.127,0,0.253,0.001,0.381,0.003c6.524,0.101,12.791,2.922,17.192,7.741 c2.793,3.059,2.578,7.803-0.48,10.596c-3.058,2.794-7.802,2.579-10.596-0.479c-1.648-1.806-3.904-2.821-6.351-2.859 c-4.875-0.079-8.887,3.809-8.969,8.661C169.582,217.312,166.237,220.586,162.155,220.587z"/> <path style="fill:#89C947;" d="M203.559,233.492c-0.866,0-1.747-0.151-2.606-0.47c-3.884-1.441-5.865-5.756-4.425-9.64 c4.184-11.279,16.771-17.067,28.063-12.902c5.616,2.074,10.18,6.423,12.521,11.933c1.62,3.812-0.156,8.216-3.969,9.836 c-3.81,1.621-8.215-0.156-9.836-3.969c-0.743-1.747-2.132-3.071-3.91-3.728c-3.547-1.308-7.493,0.508-8.805,4.046 C209.471,231.622,206.605,233.492,203.559,233.492z"/> </g><path style="fill:#368C0E;" d="M325.954,243.093h-0.274c-0.002,0.07-0.002,0.141-0.005,0.211h10.046 c2.981,0,5.396,2.421,5.396,5.407c0,15.07-4.864,29.004-13.057,40.38h75.696c2.263-4.98,3.126-10.655,2.123-16.446 c-2.23-12.872-12.867-22.171-25.308-23.264c-0.002-1.583-0.133-3.187-0.411-4.798c-2.661-15.352-17.281-25.629-32.653-22.953 c-7.98,1.391-14.587,6-18.733,12.255c-1.345-1.004-2.783-1.878-4.288-2.63c0.994,3.096,1.537,6.393,1.537,9.816 C326.022,241.731,326,242.399,325.954,243.093z"/><path style="fill:#F7931E;" d="M326.943,243.174c0.046-0.696,0.079-1.396,0.079-2.104c0-18.285-14.789-33.107-33.032-33.107 c-18.242,0-33.031,14.823-33.031,33.107c0,0.708,0.033,1.408,0.078,2.104H326.943z"/><path style="fill:#89C947;" d="M204.845,255.263c-14.511-14.542-36.212-19.03-55.288-11.433c-0.209,0.084-0.396,0.209-0.554,0.365 c-0.156,0.157-0.281,0.344-0.364,0.555c-5.836,14.722-4.5,30.991,3.036,44.341h68.08c-6.896-9.186-11.571-20.134-13.212-32.042 C205.993,256.443,205.428,255.847,204.845,255.263z"/><path style="fill:#D5E962;" d="M183.202,289.091h21.189l-20.829-20.876c-2.926-2.931-7.673-2.939-10.606-0.012 c-2.933,2.925-2.939,7.674-0.013,10.606L183.202,289.091z"/><path style="fill:#EF5050;" d="M328.566,289.091c8.689-11.576,13.87-25.941,13.87-41.51c0-2.986-2.414-5.407-5.396-5.407H209.714 c-2.981,0-5.394,2.421-5.394,5.407c0,15.569,5.181,29.934,13.871,41.51H328.566z"/><g> <path style="fill:#C0272D;" d="M281.15,289.091v-5.188c0-4.142-3.357-7.5-7.5-7.5s-7.5,3.358-7.5,7.5v5.188H281.15z"/> <path style="fill:#C0272D;" d="M295.539,289.091h11.663c2.413-2.943,2.249-7.293-0.496-10.045l-7.281-7.298 c-2.925-2.932-7.674-2.939-10.606-0.013c-2.933,2.926-2.938,7.674-0.013,10.606L295.539,289.091z"/> <path style="fill:#C0272D;" d="M250.579,289.091l6.732-6.748c2.926-2.932,2.921-7.681-0.011-10.606 c-2.932-2.926-7.681-2.921-10.607,0.011l-7.282,7.298c-2.745,2.751-2.91,7.101-0.498,10.044L250.579,289.091L250.579,289.091z"/> <path style="fill:#C0272D;" d="M239.048,268.865H228.75c-4.143,0-7.5-3.358-7.5-7.5s3.357-7.5,7.5-7.5h10.298 c4.143,0,7.5,3.358,7.5,7.5S243.19,268.865,239.048,268.865z"/> <path style="fill:#C0272D;" d="M318.006,268.865h-10.299c-4.142,0-7.5-3.358-7.5-7.5s3.358-7.5,7.5-7.5h10.299 c4.143,0,7.5,3.358,7.5,7.5S322.148,268.865,318.006,268.865z"/> </g><path style="fill:#E6E9ED;" d="M92.98,340.804c0.09,0.025,0.181,0.038,0.271,0.038c0.216,0,0.428-0.07,0.604-0.203 c0.25-0.189,0.396-0.484,0.396-0.797v-12.693c0-3.584,2.916-6.5,6.5-6.5s6.5,2.916,6.5,6.5v12.693c0,0.313,0.146,0.608,0.396,0.797 c0.176,0.133,0.388,0.203,0.604,0.203c0.091,0,0.182-0.012,0.271-0.038c5.261-1.482,11.468-2.266,17.947-2.266 c18.205,0,30.435,5.901,30.435,11.413c0,0.712-0.217,1.457-0.646,2.215c-0.142,0.249-0.169,0.548-0.075,0.819 c0.094,0.271,0.299,0.489,0.564,0.598c23.309,9.608,39.826,29.989,43.107,53.188c0.043,0.301,0.22,0.566,0.481,0.721 c0.156,0.092,0.332,0.139,0.509,0.139c0.12,0,0.24-0.022,0.355-0.065l157.875-59.976c3.055-1.16,6.261-1.748,9.529-1.748 c4.579,0,9.108,1.181,13.099,3.414c6.94,3.884,11.749,10.583,13.194,18.378l1.375,7.425c0.06,0.321,0.271,0.593,0.569,0.728 c0.132,0.06,0.273,0.09,0.414,0.09c0.177,0,0.353-0.046,0.509-0.139l53.08-31.334c4.561-16.253,6.873-33.105,6.873-50.414 c0-2.862-2.316-5.182-5.172-5.182H91.393c-2.856,0-5.172,2.32-5.172,5.182c0,15.951,1.972,31.513,5.847,46.577 C92.371,340.647,92.683,340.72,92.98,340.804z"/><path style="opacity:0.1;enable-background:new ;" d="M92.98,340.804c0.09,0.025,0.181,0.038,0.271,0.038 c0.216,0,0.428-0.07,0.604-0.203c0.25-0.189,0.396-0.484,0.396-0.797v-12.693c0-3.584,2.916-6.5,6.5-6.5s6.5,2.916,6.5,6.5v12.693 c0,0.313,0.146,0.608,0.396,0.797c0.176,0.133,0.388,0.203,0.604,0.203c0.091,0,0.182-0.012,0.271-0.038 c4.503-1.269,9.702-2.021,15.169-2.212c-3.544-14.448-5.339-29.348-5.339-44.602c0-2.862,2.315-5.182,5.172-5.182H91.393 c-2.856,0-5.172,2.32-5.172,5.182c0,15.951,1.972,31.513,5.847,46.577C92.371,340.647,92.683,340.72,92.98,340.804z"/><path style="fill:#89C947;" d="M100.75,344.373c2.054-1.153,4.598-2.158,7.502-2.977v-14.248c0-4.142-3.357-7.5-7.5-7.5 s-7.5,3.358-7.5,7.5v14.248C96.156,342.214,98.697,343.22,100.75,344.373z"/><path style="fill:#EF5050;" d="M177.369,483.55l-27.088,0.011h-0.01c-12.895-0.001-23.952-9.165-26.29-21.792l-0.267-1.436 c-2.339-12.629,4.711-25.12,16.764-29.7l60.513-22.988c-3.116-24.924-20.68-45.798-44.798-55.375 c-2.34,3.933-10.398,7.357-20.89,8.588c-0.4,0.047-0.734,0.33-0.845,0.718c-0.111,0.388,0.021,0.804,0.336,1.056 c5.438,4.35,8.854,8.936,9.139,12.269c0.104,1.208-0.193,2.188-0.909,2.996c-1.275,1.44-3.783,2.201-7.251,2.201c0,0,0,0-0.001,0 c-6.752,0-15.882-2.823-24.424-7.551c-3.762-2.085-7.109-4.362-9.952-6.771c-0.187-0.158-0.417-0.237-0.646-0.237 c-0.23,0-0.46,0.079-0.646,0.237c-2.845,2.411-6.192,4.689-9.95,6.77c-8.542,4.729-17.673,7.552-24.425,7.552 c-3.469,0-5.976-0.761-7.251-2.201c-0.716-0.808-1.014-1.787-0.91-2.995c0.286-3.333,3.702-7.919,9.138-12.27 c0.314-0.252,0.447-0.668,0.336-1.056c-0.11-0.388-0.444-0.671-0.845-0.718c-10.495-1.231-18.554-4.657-20.89-8.592 C18.657,362.846,0,387.216,0,415.601c0,38.086,33.581,68.96,75.004,68.96H179C180.123,484.561,179.254,484.162,177.369,483.55z"/><path style="opacity:0.1;enable-background:new ;" d="M32.45,415.601c0-22.622,11.848-42.699,30.148-55.275 c-8.714-1.521-15.231-4.588-17.292-8.059C18.657,362.846,0,387.216,0,415.601c0,38.086,33.581,68.96,75.004,68.96h32.451 C66.032,484.561,32.45,453.687,32.45,415.601z"/><path style="fill:#368C0E;" d="M157.905,349.952c0-6.856-14.074-12.413-31.435-12.413c-10.634,0-20.032,2.087-25.721,5.28 c-5.685-3.192-15.082-5.28-25.718-5.28c-17.36,0-31.436,5.557-31.436,12.413c0,5.626,9.486,10.375,22.483,11.9 c-7.951,6.363-11.592,13.05-8.352,16.708c4.293,4.847,19.029,2.545,32.909-5.139c3.897-2.158,7.312-4.508,10.112-6.882 c2.803,2.375,6.22,4.724,10.114,6.882c13.881,7.684,28.616,9.984,32.908,5.139c3.241-3.658-0.399-10.345-8.353-16.708 C148.422,360.327,157.905,355.578,157.905,349.952z"/><path style="fill:#89C947;" d="M511.884,394.361l-2.014-10.864c-0.692-3.75-4.309-6.228-8.075-5.538l-77.731,14.279l49.631-33.177 c2.353-1.572,3.442-4.349,2.958-6.986c-0.137-0.732-0.395-1.45-0.779-2.133l-5.617-9.948c-0.912-1.62-2.447-2.806-4.25-3.285 c-1.802-0.481-3.722-0.219-5.328,0.73l-64.564,38.113l12.214,65.94l74.054,13.308c1.845,0.332,3.749-0.096,5.271-1.184 c1.523-1.089,2.542-2.748,2.816-4.597l1.674-11.231c0.116-0.773,0.1-1.537-0.036-2.265c-0.488-2.641-2.505-4.844-5.265-5.477 l-58.252-13.361l77.732-14.28C510.091,401.713,512.578,398.113,511.884,394.361z"/><path style="fill:#F7931E;" d="M122.998,461.951c2.427,13.104,13.903,22.614,27.283,22.609l233.967-0.09 c8.233-0.003,16.042-3.65,21.308-9.954c5.268-6.303,7.45-14.611,5.956-22.678l-15.63-84.387c-1.495-8.065-6.51-15.051-13.689-19.069 s-15.778-4.649-23.472-1.728l-218.598,83.043c-12.502,4.751-19.818,17.712-17.392,30.817L122.998,461.951z"/><g style="opacity:0.1;"> <path d="M122.998,461.951c0.372,2.012,0.981,3.926,1.754,5.747c3.225-5.729,8.405-10.364,14.944-12.849l228.289-86.725 c8.035-3.051,17.016-2.391,24.512,1.804c1.575,0.882,3.044,1.908,4.406,3.045l-1.021-5.521c-1.495-8.065-6.51-15.051-13.689-19.069 s-15.778-4.649-23.472-1.728l-218.598,83.043c-12.502,4.751-19.818,17.712-17.392,30.817L122.998,461.951z"/> </g><g> <path style="fill:#FFC502;" d="M370.837,449.389c-0.778-4.069-4.716-6.736-8.775-5.957c-4.068,0.778-6.735,4.707-5.957,8.775 l6.174,32.272l15.271-0.006L370.837,449.389z"/> <path style="fill:#FFC502;" d="M330.183,458.282c-0.768-4.071-4.688-6.747-8.76-5.981c-4.07,0.767-6.748,4.689-5.98,8.759 l4.418,23.435l15.263-0.006L330.183,458.282z"/> <path style="fill:#FFC502;" d="M290.439,401.794c0.857,3.402,3.912,5.67,7.268,5.67c0.606,0,1.223-0.074,1.837-0.229 c4.017-1.011,6.453-5.087,5.442-9.105l-7.139-28.35l-14.118,5.364L290.439,401.794z"/> <path style="fill:#FFC502;" d="M251.413,451.746c-0.735-4.076-4.632-6.786-8.712-6.05c-4.076,0.735-6.785,4.636-6.05,8.712 l5.431,30.117l15.241-0.006L251.413,451.746z"/> <path style="fill:#FFC502;" d="M175.752,437.728c0.741,3.535,3.858,5.961,7.332,5.961c0.511,0,1.029-0.052,1.549-0.162 c4.054-0.85,6.649-4.827,5.799-8.88l-4.677-22.283l-14.194,5.392L175.752,437.728z"/> </g></symbol></svg>