<?xml version="1.0" encoding="UTF-8" standalone="no"?>
<svg
   xmlns:dc="http://purl.org/dc/elements/1.1/"
   xmlns:cc="http://creativecommons.org/ns#"
   xmlns:rdf="http://www.w3.org/1999/02/22-rdf-syntax-ns#"
   xmlns:svg="http://www.w3.org/2000/svg"
   xmlns="http://www.w3.org/2000/svg"
   id="svg6"
   version="1.1"
   viewBox="0 0 216.4144 232.00976"
   height="65.47831mm"
   width="61.076954mm">
  <metadata
     id="metadata12">
    <rdf:RDF>
      <cc:Work
         rdf:about="">
        <dc:format>image/svg+xml</dc:format>
        <dc:type
           rdf:resource="http://purl.org/dc/dcmitype/StillImage" />
        <dc:title></dc:title>
      </cc:Work>
    </rdf:RDF>
  </metadata>
  <defs
     id="defs10" />
  <symbol
     viewBox="0 0 216.4144 232.00976"
     id="mastodon">
    <path
       fill="#2b90d9"
       d="M211.80734 139.0875c-3.18125 16.36625-28.4925 34.2775-57.5625 37.74875-15.15875 1.80875-30.08375 3.47125-45.99875 2.74125-26.0275-1.1925-46.565-6.2125-46.565-6.2125 0 2.53375.15625 4.94625.46875 7.2025 3.38375 25.68625 25.47 27.225 46.39125 27.9425 21.11625.7225 39.91875-5.20625 39.91875-5.20625l.8675 19.09s-14.77 7.93125-41.08125 9.39c-14.50875.7975-32.52375-.365-53.50625-5.91875C9.23234 213.82 1.40609 165.31125.20859 116.09125c-.365-14.61375-.14-28.39375-.14-39.91875 0-50.33 32.97625-65.0825 32.97625-65.0825C49.67234 3.45375 78.20359.2425 107.86484 0h.72875c29.66125.2425 58.21125 3.45375 74.8375 11.09 0 0 32.975 14.7525 32.975 65.0825 0 0 .41375 37.13375-4.59875 62.915"
       id="path2" />
    <path
       fill="#fff"
       d="M177.50984 80.077v60.94125h-24.14375v-59.15c0-12.46875-5.24625-18.7975-15.74-18.7975-11.6025 0-17.4175 7.5075-17.4175 22.3525v32.37625H96.20734V85.42325c0-14.845-5.81625-22.3525-17.41875-22.3525-10.49375 0-15.74 6.32875-15.74 18.7975v59.15H38.90484V80.077c0-12.455 3.17125-22.3525 9.54125-29.675 6.56875-7.3225 15.17125-11.07625 25.85-11.07625 12.355 0 21.71125 4.74875 27.8975 14.2475l6.01375 10.08125 6.015-10.08125c6.185-9.49875 15.54125-14.2475 27.8975-14.2475 10.6775 0 19.28 3.75375 25.85 11.07625 6.36875 7.3225 9.54 17.22 9.54 29.675"
       id="path4" />
  </symbol>
  <symbol
     viewBox="0 0 300.00006 244.18703"
     id="twitter">
    <path
       d="m 94.71877,243.18702 c 112.46038,0 173.95627,-93.16765 173.95627,-173.95625 0,-2.64628 -0.0539,-5.28062 -0.1726,-7.90305 11.93799,-8.63016 22.31446,-19.39999 30.49762,-31.65984 -10.95459,4.86937 -22.74358,8.14741 -35.11071,9.62551 C 276.51276,31.7241 286.20381,19.75035 290.77518,5.476 278.96234,12.47907 265.88001,17.56897 251.95135,20.31655 240.79412,8.43219 224.91056,1 207.32243,1 c -33.76374,0 -61.14426,27.38052 -61.14426,61.13233 0,4.79784 0.5364,9.46458 1.58538,13.94057 C 96.94809,73.51604 51.89002,49.18708 21.73809,12.19299 c -5.25082,9.03545 -8.27852,19.53111 -8.27852,30.73006 0,21.21186 10.79366,39.93837 27.20766,50.89296 -10.03077,-0.30992 -19.45363,-3.06348 -27.69044,-7.64676 -0.009,0.25652 -0.009,0.50661 -0.009,0.78077 0,29.60957 21.07478,54.3319 49.0513,59.93435 -5.13757,1.40062 -10.54335,2.15158 -16.12196,2.15158 -3.93364,0 -7.76596,-0.38716 -11.49099,-1.1026 7.78383,24.2932 30.35457,41.97073 57.11525,42.46543 -20.92578,16.40207 -47.28712,26.17062 -75.93712,26.17062 -4.92898,0 -9.79834,-0.28036 -14.58427,-0.84634 27.05868,17.34379 59.18936,27.46396 93.72193,27.46396"
       style="fill:#1da1f2;fill-opacity:1;fill-rule:nonzero;stroke:none"
       id="path3611" />
  </symbol>
  <symbol
     viewBox="0 0 155.42708 60"
     id="cc-by-sa">
     <g
        transform="translate(-27.286459,-237)"
        id="layer1">
       <path
          id="circle20815"
          d="m 127.25925,262.30957 a 22.152311,22.152311 0 0 1 -22.15231,22.15231 22.152311,22.152311 0 0 1 -22.15231,-22.15231 22.152311,22.152311 0 0 1 22.15231,-22.15231 22.152311,22.152311 0 0 1 22.15231,22.15231 z"
          style="fill:#ffffff;stroke-width:0.78343165" />
       <path
          style="fill:#000000;fill-opacity:1;stroke-width:0.78343165"
          d="m 104.95497,237.00002 c 7.04148,0 12.98146,2.41689 17.8168,7.25223 4.86354,4.86511 7.29766,10.80431 7.29766,17.81759 0,7.04383 -2.38868,12.90781 -7.16448,17.59274 -5.0735,4.98497 -11.05657,7.47707 -17.94998,7.47707 -6.775902,0 -12.654773,-2.46311 -17.638182,-7.38776 -4.923868,-4.92465 -7.386978,-10.81763 -7.386978,-17.68205 0,-6.86365 2.46311,-12.80284 7.386978,-17.8168 4.83534,-4.83613 10.713429,-7.25302 17.638182,-7.25302 z m 0.0893,4.52197 c -5.700249,0 -10.519919,2.0001 -14.459797,5.99874 -4.089513,4.17882 -6.133486,9.02905 -6.133486,14.54989 0,5.5514 2.029089,10.35697 6.087263,14.41358 4.058961,4.05974 8.893516,6.08804 14.50445,6.08804 5.58039,0 10.44628,-2.0424 14.59455,-6.1327 3.93988,-3.79024 5.90943,-8.58014 5.90943,-14.37049 0,-5.70025 -2.0001,-10.54891 -5.99796,-14.5491 -3.99863,-3.99864 -8.83397,-5.99796 -14.50445,-5.99796 z m 6.71558,14.32505 v 10.2512 h -2.86423 v 12.1761 h -7.79044 v -12.17532 h -2.864231 v -10.25198 c 0,-0.44812 0.156702,-0.82809 0.469275,-1.14146 0.314159,-0.31259 0.694907,-0.47006 1.141461,-0.47006 h 10.297425 c 0.41757,0 0.79127,0.15667 1.11874,0.47006 0.32669,0.31337 0.492,0.69412 0.492,1.14146 z m -10.25276,-6.44608 c 0,-2.35656 1.16339,-3.53641 3.49253,-3.53641 2.32915,0 3.49176,1.17828 3.49176,3.53641 0,2.32758 -1.16418,3.49176 -3.49176,3.49176 -2.32757,0 -3.49253,-1.16418 -3.49253,-3.49176 z"
          id="path20819" />
       <g
          id="text20821"
          style="font-size:11.84622288px;line-height:125%;font-family:Sans;letter-spacing:0px;word-spacing:0px;fill:#000000;stroke-width:0.78343165"
          aria-label="BY">
         <path
            id="path1025"
            style="font-weight:bold;font-family:Arial;stroke-width:0.78343165"
            d="m 97.300324,296.65378 h 3.885566 c 0.99508,0 1.65847,-0.18954 2.1797,-0.62785 0.52123,-0.43831 0.85293,-1.16093 0.85293,-1.85986 0,-0.85293 -0.45016,-1.52816 -1.43339,-2.09678 0.85292,-0.54493 1.18462,-1.04247 1.18462,-1.77693 0,-0.60416 -0.29616,-1.22016 -0.78185,-1.64663 -0.50939,-0.43831 -1.11355,-0.62785 -2.03755,-0.62785 h -3.850026 z m 1.776933,-7.15512 h 1.930933 c 0.82924,0 1.2557,0.33169 1.2557,0.97139 0,0.65154 -0.42646,0.98324 -1.2557,0.98324 h -1.930933 z m 0,3.4354 h 2.120473 c 0.86478,0 1.31493,0.37908 1.31493,1.1254 0,0.73446 -0.45015,1.11354 -1.31493,1.11354 h -2.120473 z" />
         <path
            id="path1027"
            style="font-weight:bold;font-family:Arial;stroke-width:0.78343165"
            d="m 109.25313,293.4553 2.73648,-5.43742 h -1.99017 l -1.64662,3.81449 -1.76509,-3.81449 h -1.97832 l 2.86678,5.43742 v 3.19848 h 1.77694 z" />
       </g>
       <g
          id="g1146">
         <path
            style="fill:#ffffff;stroke-width:0.78343165"
            d="M 75.170591,262.07068 A 22.591036,22.591036 0 0 1 52.579556,284.66171 22.591036,22.591036 0 0 1 29.98852,262.07068 22.591036,22.591036 0 0 1 52.579556,239.47964 22.591036,22.591036 0 0 1 75.170591,262.07068 Z"
            id="circle20721" />
         <path
            id="path20723"
            d="m 52.31005,237.00007 c 7.012496,0 12.983028,2.44822 17.906896,7.34232 2.356561,2.35734 4.148271,5.05156 5.371991,8.08031 1.222937,3.02953 1.836363,6.24473 1.836363,9.64718 0,3.43221 -0.605593,6.6482 -1.812859,9.64639 -1.208836,2.99898 -2.992709,5.64854 -5.349273,7.94635 -2.446656,2.41688 -5.222356,4.26813 -8.327093,5.55139 -3.103174,1.28326 -6.312109,1.9249 -9.624459,1.9249 -3.31235,0 -6.483679,-0.63302 -9.51321,-1.90296 -3.028746,-1.26759 -5.744905,-3.10317 -8.147688,-5.50517 -2.402785,-2.40201 -4.230532,-5.11111 -5.484021,-8.12575 -1.253492,-3.01465 -1.880238,-6.19225 -1.880238,-9.53515 0,-3.31314 0.633797,-6.49857 1.902173,-9.55787 1.268376,-3.0593 3.111791,-5.79739 5.528678,-8.21506 4.775014,-4.86355 10.639001,-7.29688 17.59274,-7.29688 z m 0.09089,4.52196 c -5.730017,0 -10.550473,2.0001 -14.46058,5.99874 -1.97033,2.0001 -3.484704,4.24541 -4.543903,6.73751 -1.060766,2.4921 -1.589582,5.09622 -1.589582,7.81238 0,2.68639 0.528816,5.27563 1.589582,7.76616 1.059984,2.49366 2.573573,4.71704 4.543903,6.6717 1.969548,1.95545 4.192142,3.44632 6.670919,4.47731 2.476429,1.02943 5.073505,1.54415 7.789661,1.54415 2.685604,0 5.288165,-0.52098 7.813164,-1.56608 2.521865,-1.04588 4.795384,-2.55164 6.826041,-4.52119 3.909324,-3.82001 5.863201,-8.60991 5.863201,-14.37126 0,-2.7757 -0.507663,-5.40177 -1.522208,-7.87898 -1.012976,-2.47721 -2.491313,-4.68492 -4.429523,-6.62626 -4.031537,-4.02919 -8.880197,-6.04418 -14.550675,-6.04418 z m -0.314156,16.38548 -3.358572,1.74626 c -0.358809,-0.74504 -0.798315,-1.26837 -1.320081,-1.56686 -0.522548,-0.2977 -1.007493,-0.44734 -1.455616,-0.44734 -2.237481,0 -3.357789,1.47677 -3.357789,4.43188 0,1.3428 0.283604,2.4161 0.850026,3.22225 0.567202,0.80615 1.403126,1.20962 2.507763,1.20962 1.462667,0 2.492096,-0.71684 3.089856,-2.14895 l 3.088287,1.56686 c -0.656518,1.2245 -1.566865,2.18655 -2.731043,2.88773 -1.162613,0.70195 -2.446657,1.05215 -3.849783,1.05215 -2.238264,0 -4.044859,-0.68551 -5.41743,-2.05965 -1.372573,-1.37257 -2.058858,-3.28258 -2.058858,-5.72923 0,-2.3879 0.694121,-4.28224 2.081577,-5.68537 1.387458,-1.40234 3.140777,-2.10429 5.260744,-2.10429 3.10474,-0.002 5.327334,1.20727 6.670919,3.62494 z m 14.459799,0 -3.313132,1.74626 c -0.35803,-0.74504 -0.799101,-1.26837 -1.320867,-1.56686 -0.523333,-0.2977 -1.023946,-0.44734 -1.499489,-0.44734 -2.238264,0 -3.358569,1.47677 -3.358569,4.43188 0,1.3428 0.284383,2.4161 0.850805,3.22225 0.566422,0.80615 1.40156,1.20962 2.507764,1.20962 1.461101,0 2.491313,-0.71684 3.087504,-2.14895 l 3.133726,1.56686 c -0.685501,1.2245 -1.611518,2.18655 -2.774131,2.88773 -1.164179,0.70195 -2.432555,1.05215 -3.805126,1.05215 -2.268819,0 -4.080896,-0.68551 -5.4378,-2.05965 -1.360037,-1.37257 -2.038488,-3.28258 -2.038488,-5.72923 0,-2.3879 0.693338,-4.28224 2.082362,-5.68537 1.386673,-1.40234 3.139992,-2.10429 5.259176,-2.10429 3.103955,-0.002 5.314015,1.20727 6.626265,3.62494 z"
            style="stroke-width:0.78343165" />
       </g>
       <g
          id="g1160">
         <path
            style="fill:#ffffff;stroke-width:0.78343165"
            d="m 180.00992,262.17245 a 22.801777,22.801777 0 0 1 -22.80177,22.80178 22.801777,22.801777 0 0 1 -22.80178,-22.80178 22.801777,22.801777 0 0 1 22.80178,-22.80177 22.801777,22.801777 0 0 1 22.80177,22.80177 z"
            id="circle20915" />
         <path
            id="path20919"
            d="m 157.59907,237 c 7.0125,0 12.95091,2.43255 17.81681,7.29766 4.86354,4.83534 7.29766,10.75887 7.29766,17.77215 0,7.01485 -2.38868,12.89293 -7.16448,17.63818 -5.04295,4.95442 -11.02758,7.43163 -17.94999,7.43163 -6.7759,0 -12.65477,-2.46232 -17.63818,-7.38697 -4.92386,-4.92387 -7.38697,-10.81684 -7.38697,-17.68205 0,-6.83388 2.46311,-12.75819 7.38697,-17.77215 C 144.82522,239.43255 150.70487,237 157.59907,237 Z m 0.0893,4.52197 c -5.70025,0 -10.51992,2.01498 -14.4598,6.04417 -4.08951,4.14906 -6.13349,8.98361 -6.13349,14.50367 0,5.58195 2.02909,10.38595 6.08727,14.41514 4.05896,4.05975 8.89351,6.08805 14.50445,6.08805 5.58038,0 10.44628,-2.04397 14.59455,-6.1327 3.93987,-3.82001 5.90942,-8.60992 5.90942,-14.37049 0,-5.72923 -2.0001,-10.56457 -5.99795,-14.50367 -3.96965,-4.03075 -8.80499,-6.04417 -14.50445,-6.04417 z m -11.19211,17.01065 c 0.47711,-3.07419 1.71493,-5.45425 3.71503,-7.1402 1.99932,-1.68594 4.43109,-2.52891 7.29689,-2.52891 3.93831,0 7.0736,1.26915 9.40118,3.80434 2.32757,2.53675 3.49175,5.79034 3.49175,9.75921 0,3.85056 -1.20883,7.05088 -3.62494,9.60173 -2.41923,2.55086 -5.55139,3.82785 -9.40274,3.82785 -2.83524,0 -5.28268,-0.85002 -7.34154,-2.55164 -2.05964,-1.70161 -3.29746,-4.1185 -3.71582,-7.25222 h 6.31368 c 0.14884,3.04441 1.98443,4.56662 5.50674,4.56662 1.75959,0 3.17838,-0.76149 4.25247,-2.28292 1.07565,-1.52142 1.61308,-3.55208 1.61308,-6.08805 0,-2.65661 -0.49278,-4.67787 -1.47677,-6.06611 -0.98555,-1.38745 -2.402,-2.08157 -4.25403,-2.08157 -3.34369,0 -5.22314,1.47676 -5.64071,4.43109 h 1.83558 l -4.96852,4.9693 -4.96931,-4.9693 z"
            style="stroke-width:0.78343165" />
         <g
            aria-label="SA"
            style="font-size:11.84622288px;line-height:125%;font-family:Sans;letter-spacing:0px;word-spacing:0px;fill:#000000;stroke-width:0.78343165"
            id="text20960">
           <path
              d="m 156.40954,290.7215 c -0.0118,-1.78878 -1.20831,-2.77201 -3.38802,-2.77201 -2.07308,0 -3.26955,0.97139 -3.26955,2.65355 0,1.33863 0.67523,1.99017 2.42847,2.32186 l 1.20832,0.23693 c 1.18462,0.22507 1.62293,0.55677 1.62293,1.2557 0,0.72262 -0.66339,1.16093 -1.74139,1.16093 -1.20832,0 -1.88355,-0.50939 -1.94278,-1.4334 h -1.72955 c 0.10661,1.84801 1.37416,2.85494 3.57756,2.85494 2.22709,0 3.54202,-1.03062 3.54202,-2.79571 0,-1.36231 -0.68708,-2.07309 -2.28632,-2.38109 l -1.35047,-0.26061 c -1.26755,-0.24877 -1.63478,-0.49755 -1.63478,-1.1254 0,-0.65154 0.56862,-1.06616 1.49262,-1.06616 1.12539,0 1.75324,0.47385 1.81247,1.35047 z"
              style="font-weight:bold;font-family:Arial;stroke-width:0.78343165"
              id="path1018" />
           <path
              d="m 162.81834,294.98614 0.56862,1.7414 h 1.82432 l -2.98525,-8.6359 h -1.96647 l -3.06817,8.6359 h 1.81247 l 0.58046,-1.7414 z m -0.48569,-1.48077 h -2.25078 l 1.12539,-3.37618 z"
              style="font-weight:bold;font-family:Arial;stroke-width:0.78343165"
              id="path1020" />
         </g>
       </g>
     </g>
  </symbol>
  <symbol id="email" viewBox="0 0 512 512" style="enable-background:new 0 0 512 512;">
  <rect y="76.8" style="fill:#78B9EB;" width="512" height="358.4"/>
  <g>
  	<rect x="256" y="76.8" style="fill:#5A8BB0;" width="256" height="358.4"/>
  	<polygon style="fill:#5A8BB0;" points="512,345.6 256,179.2 0,345.6 0,435.2 512,435.2 	"/>
  </g>
  <polygon style="fill:#3C5D76;" points="512,345.6 256,179.2 256,435.2 512,435.2 "/>
  <polygon style="fill:#C9E3F7;" points="512,166.4 256,358.4 0,166.4 0,76.8 512,76.8 "/>
  <polygon style="fill:#78B9EB;" points="512,166.4 256,358.4 256,76.8 512,76.8 "/>
</symbol>

</svg>
