<?xml version="1.0" encoding="UTF-8" standalone="no"?>
<!-- Created with Inkscape (http://www.inkscape.org/) -->

<svg
   xmlns:dc="http://purl.org/dc/elements/1.1/"
   xmlns:cc="http://creativecommons.org/ns#"
   xmlns:rdf="http://www.w3.org/1999/02/22-rdf-syntax-ns#"
   xmlns:svg="http://www.w3.org/2000/svg"
   xmlns="http://www.w3.org/2000/svg"
   xmlns:xlink="http://www.w3.org/1999/xlink"
   xmlns:sodipodi="http://sodipodi.sourceforge.net/DTD/sodipodi-0.dtd"
   xmlns:inkscape="http://www.inkscape.org/namespaces/inkscape"
   width="400"
   height="400"
   viewBox="0 0 105.83333 105.83334"
   version="1.1"
   id="svg853"
   inkscape:version="0.92.4 5da689c313, 2019-01-14"
   sodipodi:docname="logo_pses.svg">
  <defs
     id="defs847">
    <linearGradient
       gradientTransform="matrix(0.2770098,0,0,0.2770098,145.70667,49.353216)"
       inkscape:collect="always"
       xlink:href="#rainbow-7-5"
       id="linearGradient4160"
       x1="-262.23282"
       y1="525.2439"
       x2="-450.79297"
       y2="906.2818"
       gradientUnits="userSpaceOnUse" />
    <linearGradient
       inkscape:collect="always"
       id="rainbow-7-5">
      <stop
         id="stop4196"
         offset="0"
         style="stop-color:#450096;stop-opacity:1" />
      <stop
         id="stop4194"
         offset="0.18599123"
         style="stop-color:#050d90;stop-opacity:1" />
      <stop
         style="stop-color:#0b8a13;stop-opacity:1"
         offset="0.36580795"
         id="stop4192" />
      <stop
         id="stop4190"
         offset="0.58342639"
         style="stop-color:#f7f01b;stop-opacity:1" />
      <stop
         style="stop-color:#bb5a03;stop-opacity:1"
         offset="0.78402987"
         id="stop4188" />
      <stop
         id="stop4186"
         offset="1"
         style="stop-color:#ff0000;stop-opacity:1;" />
    </linearGradient>
  </defs>
  <sodipodi:namedview
     id="base"
     pagecolor="#ffffff"
     bordercolor="#666666"
     borderopacity="1.0"
     inkscape:pageopacity="0.0"
     inkscape:pageshadow="2"
     inkscape:zoom="0.98994949"
     inkscape:cx="273.50193"
     inkscape:cy="339.17759"
     inkscape:document-units="mm"
     inkscape:current-layer="layer1"
     showgrid="false"
     units="px"
     inkscape:window-width="1680"
     inkscape:window-height="985"
     inkscape:window-x="1920"
     inkscape:window-y="0"
     inkscape:window-maximized="1" />
  <metadata
     id="metadata850">
    <rdf:RDF>
      <cc:Work
         rdf:about="">
        <dc:format>image/svg+xml</dc:format>
        <dc:type
           rdf:resource="http://purl.org/dc/dcmitype/StillImage" />
        <dc:title></dc:title>
      </cc:Work>
    </rdf:RDF>
  </metadata>
  <g
     inkscape:label="Calque 1"
     inkscape:groupmode="layer"
     id="layer1"
     transform="translate(0,-191.16665)">
    <path
       inkscape:export-ydpi="24.763855"
       inkscape:export-xdpi="24.763855"
       inkscape:export-filename="/home/nolwenn/programmation/PSES2018-don/source/images/rainbow-logo.png"
       inkscape:connector-curvature="0"
       id="path4144"
       d="m 37.67285,293.53737 v -3.46262 H 30.193585 22.71432 v -7.20226 -7.20226 h 3.739632 3.739633 v -10.52636 -10.52638 h 3.739632 3.739633 v -3.46262 -3.46262 h 3.739632 3.739633 V 244.22962 240.767 H 41.412482 37.67285 v -17.59012 -17.59013 h -3.739633 -3.739632 v -7.21006 -7.21008 l 3.808885,0.077 3.808885,0.0771 0.07401,6.9945 0.07401,6.9945 h 3.596372 3.596371 v -3.46262 -3.46262 h 3.731355 3.731358 l 0.07753,-3.53188 0.07753,-3.53188 7.548516,-0.0737 7.548518,-0.0737 v 3.74408 3.74409 H 64.127292 60.38766 v 3.46262 3.46262 h -3.739633 -3.739632 v 6.92525 6.92525 h 7.479265 7.479265 v 3.46262 3.46262 h 3.739632 3.739633 v 3.60112 3.60114 h 3.878135 3.878138 v 3.60112 3.60113 h -3.878142 -3.878137 v 3.46262 3.46263 h -3.739633 -3.739632 v 3.46262 3.46262 h 3.739632 3.739633 v 3.45481 3.4548 l 3.808885,0.0771 3.808885,0.0771 0.07753,3.53188 0.07753,3.53188 h -11.36568 -11.36568 v 3.60112 3.60113 h -3.739633 -3.739632 v 3.32412 3.32411 h 11.218897 11.218898 v 3.60114 3.60112 h 3.878137 3.878138 v 3.60114 3.60112 H 60.387654 37.67285 Z m 22.437794,-63.43525 v -3.46262 h -3.601127 -3.601128 v 3.46262 3.46263 h 3.601128 3.601127 z"
       style="fill:url(#linearGradient4160);fill-opacity:1;stroke:none;stroke-width:0.27700979" />
  </g>
</svg>
